<svg width="1079" height="764" viewBox="0 0 1079 764" fill="none" xmlns="http://www.w3.org/2000/svg">
<g opacity="0.8">
<mask id="mask0_390_2868" style="mask-type:alpha" maskUnits="userSpaceOnUse" x="101" y="254" width="923" height="508">
<path fill-rule="evenodd" clip-rule="evenodd" d="M1024 254H101V762H1024V254ZM787.963 649.92L552.18 545.078L470.844 581.23L706.687 686.339L787.963 649.92Z" fill="#D9D9D9"/>
</mask>
<g mask="url(#mask0_390_2868)">
<path d="M429.666 713.175L666.131 608.135" stroke="white" stroke-width="2" stroke-linecap="round" stroke-linejoin="round" stroke-dasharray="5 5"/>
<path d="M698.396 609.877L934.862 504.837" stroke="white" stroke-width="2" stroke-linecap="round" stroke-linejoin="round" stroke-dasharray="5 5"/>
<path d="M454.359 739.18L690.825 634.14" stroke="white" stroke-width="2" stroke-linecap="round" stroke-linejoin="round" stroke-dasharray="5 5"/>
<path d="M363 716.741L822.024 512.995" stroke="white" stroke-width="2" stroke-linecap="round" stroke-linejoin="round" stroke-dasharray="5 5"/>
<path d="M508.26 663.286L967.283 459.54" stroke="white" stroke-width="2" stroke-linecap="round" stroke-linejoin="round" stroke-dasharray="5 5"/>
<path d="M596.143 665.339L975.999 496.267" stroke="white" stroke-width="2" stroke-linecap="round" stroke-linejoin="round" stroke-dasharray="5 5"/>
<path d="M904.096 509.202L883.76 517.509" stroke="white" stroke-width="2" stroke-linecap="round" stroke-linejoin="round" stroke-dasharray="5 5"/>
<path d="M849.624 520.761L829.287 529.068" stroke="white" stroke-width="2" stroke-linecap="round" stroke-linejoin="round" stroke-dasharray="5 5"/>
<path d="M706.542 637.783L686.205 646.09" stroke="white" stroke-width="2" stroke-linecap="round" stroke-linejoin="round" stroke-dasharray="5 5"/>
<path d="M722.52 587.94L702.184 596.248" stroke="white" stroke-width="2" stroke-linecap="round" stroke-linejoin="round" stroke-dasharray="5 5"/>
<path d="M610.669 589.385L590.332 597.692" stroke="white" stroke-width="2" stroke-linecap="round" stroke-linejoin="round" stroke-dasharray="5 5"/>
<path d="M870.686 476.696L850.35 485.003" stroke="white" stroke-width="2" stroke-linecap="round" stroke-linejoin="round" stroke-dasharray="5 5"/>
<path d="M541.67 682.57L521.334 690.878" stroke="white" stroke-width="2" stroke-linecap="round" stroke-linejoin="round" stroke-dasharray="5 5"/>
<path d="M404.399 716.521L384.062 724.829" stroke="white" stroke-width="2" stroke-linecap="round" stroke-linejoin="round" stroke-dasharray="5 5"/>
</g>
<path d="M235 686.339L471.112 581.23" stroke="white" stroke-width="2" stroke-linecap="round" stroke-linejoin="round"/>
<path d="M559 752.637L708.407 686.072" stroke="white" stroke-width="2" stroke-linecap="round" stroke-linejoin="round"/>
<path d="M552.119 545.346L698.705 479.281" stroke="white" stroke-width="2" stroke-linecap="round" stroke-linejoin="round"/>
<path d="M131 704.637L471.112 553.242" stroke="white" stroke-width="2" stroke-linecap="round" stroke-linejoin="round"/>
<path d="M552.119 515.701L952 335.637" stroke="white" stroke-width="2" stroke-linecap="round" stroke-linejoin="round"/>
<path d="M789.414 650.187L936 584.123" stroke="white" stroke-width="2" stroke-linecap="round" stroke-linejoin="round"/>
<path d="M472.295 762.259L708.407 657.15" stroke="white" stroke-width="2" stroke-linecap="round" stroke-linejoin="round"/>
<path d="M789.414 621.266L1078 490.637" stroke="white" stroke-width="2" stroke-linecap="round" stroke-linejoin="round"/>
<path d="M552.119 545.078L787.963 649.92" stroke="white" stroke-width="2" stroke-linecap="round" stroke-linejoin="round"/>
<path d="M470.844 581.23L706.687 686.072" stroke="white" stroke-width="2" stroke-linecap="round" stroke-linejoin="round"/>
<path d="M789.375 651.093L789.438 622.908" stroke="white" stroke-width="2" stroke-linecap="round" stroke-linejoin="round" stroke-dasharray="5 5"/>
<path d="M708.375 685.093L708.438 656.908" stroke="white" stroke-width="2" stroke-linecap="round" stroke-linejoin="round" stroke-dasharray="5 5"/>
<path d="M552.375 546.079L552.5 517.637" stroke="white" stroke-width="2" stroke-linecap="round" stroke-linejoin="round" stroke-dasharray="5 5"/>
<path d="M471.375 580.079L471.5 551.637" stroke="white" stroke-width="2" stroke-linecap="round" stroke-linejoin="round" stroke-dasharray="5 5"/>
<path d="M471.438 617.178L471.5 581.637" stroke="white" stroke-width="2" stroke-linecap="round" stroke-linejoin="round" stroke-dasharray="5 5"/>
<path fill-rule="evenodd" clip-rule="evenodd" d="M1 522.378L40.9457 504.637L151 552.929L111.054 570.637L1 522.378Z" stroke="white" stroke-width="2" stroke-linecap="round" stroke-linejoin="round" stroke-dasharray="5 5"/>
<path fill-rule="evenodd" clip-rule="evenodd" d="M124 578.378L163.946 560.637L274 608.929L234.054 626.637L124 578.378Z" stroke="white" stroke-width="2" stroke-linecap="round" stroke-linejoin="round" stroke-dasharray="5 5"/>
<path fill-rule="evenodd" clip-rule="evenodd" d="M46.5405 508.888C44.3836 507.144 38.6971 503.279 40.1989 499.912C41.0048 498.105 44.0362 498.148 44.8912 499.937C46.2173 502.711 47.1334 505.665 48.2544 508.529" fill="white" fill-opacity="0.56"/>
<path d="M46.5405 508.888C44.3836 507.144 38.6971 503.279 40.1989 499.912C41.0048 498.105 44.0362 498.148 44.8912 499.937C46.2173 502.711 47.1334 505.665 48.2544 508.529" stroke="white" stroke-width="2" stroke-linecap="round" stroke-linejoin="round"/>
<path fill-rule="evenodd" clip-rule="evenodd" d="M47.25 508.51C47.25 500.197 57.8033 501.44 52.5186 508.534C50.1374 511.73 50.7458 511.004 47.6844 512.93" fill="white" fill-opacity="0.56"/>
<path d="M47.25 508.51C47.25 500.197 57.8033 501.44 52.5186 508.534C50.1374 511.73 50.7458 511.004 47.6844 512.93" stroke="white" stroke-width="2" stroke-linecap="round" stroke-linejoin="round"/>
<path d="M46.875 518.498V502.993" stroke="white" stroke-width="2" stroke-linecap="round" stroke-linejoin="round" stroke-dasharray="5 5"/>
<path fill-rule="evenodd" clip-rule="evenodd" d="M121.459 546.888C123.616 545.144 129.303 541.279 127.801 537.912C126.995 536.105 123.964 536.148 123.109 537.937C121.783 540.711 120.867 543.665 119.746 546.529" fill="white" fill-opacity="0.56"/>
<path d="M121.459 546.888C123.616 545.144 129.303 541.279 127.801 537.912C126.995 536.105 123.964 536.148 123.109 537.937C121.783 540.711 120.867 543.665 119.746 546.529" stroke="white" stroke-width="2" stroke-linecap="round" stroke-linejoin="round"/>
<path fill-rule="evenodd" clip-rule="evenodd" d="M120.75 546.51C120.75 538.197 110.197 539.44 115.481 546.534C117.863 549.73 117.254 549.004 120.316 550.93" fill="white" fill-opacity="0.56"/>
<path d="M120.75 546.51C120.75 538.197 110.197 539.44 115.481 546.534C117.863 549.73 117.254 549.004 120.316 550.93" stroke="white" stroke-width="2" stroke-linecap="round" stroke-linejoin="round"/>
<path d="M121.125 556.498V540.993" stroke="white" stroke-width="2" stroke-linecap="round" stroke-linejoin="round" stroke-dasharray="5 5"/>
<path fill-rule="evenodd" clip-rule="evenodd" d="M28.6332 520.453C30.7589 518.667 36.3629 514.712 34.883 511.265C34.0887 509.416 31.1013 509.46 30.2586 511.291C28.9517 514.13 28.0489 517.154 26.9441 520.085" fill="white" fill-opacity="0.56"/>
<path d="M28.6332 520.453C30.7589 518.667 36.3629 514.712 34.883 511.265C34.0887 509.416 31.1013 509.46 30.2586 511.291C28.9517 514.13 28.0489 517.154 26.9441 520.085" stroke="white" stroke-width="2" stroke-linecap="round" stroke-linejoin="round"/>
<path fill-rule="evenodd" clip-rule="evenodd" d="M27.9355 520.811C27.9355 512.302 17.5352 513.574 22.7433 520.836C25.09 524.108 24.4904 523.364 27.5075 525.336" fill="white" fill-opacity="0.56"/>
<path d="M27.9355 520.811C27.9355 512.302 17.5352 513.574 22.7433 520.836C25.09 524.108 24.4904 523.364 27.5075 525.336" stroke="white" stroke-width="2" stroke-linecap="round" stroke-linejoin="round"/>
<path fill-rule="evenodd" clip-rule="evenodd" d="M27.0771 499.235C27.9186 499.03 28.9698 499.478 31.6746 497.393C34.734 495.035 37.9424 485.389 31.4767 489.758C29.7752 490.908 28.9716 493.027 27.719 494.661" fill="white" fill-opacity="0.56"/>
<path d="M27.0771 499.235C27.9186 499.03 28.9698 499.478 31.6746 497.393C34.734 495.035 37.9424 485.389 31.4767 489.758C29.7752 490.908 28.9716 493.027 27.719 494.661" stroke="white" stroke-width="2" stroke-linecap="round" stroke-linejoin="round"/>
<path fill-rule="evenodd" clip-rule="evenodd" d="M25.8788 501.7C25.4238 500.287 20.3664 493.102 20.3664 499.311C20.3664 501.7 21.5895 503.449 26.0372 508.121" fill="white" fill-opacity="0.56"/>
<path d="M25.8788 501.7C25.4238 500.287 20.3664 493.102 20.3664 499.311C20.3664 501.7 21.5895 503.449 26.0372 508.121" stroke="white" stroke-width="2" stroke-linecap="round" stroke-linejoin="round"/>
<path fill-rule="evenodd" clip-rule="evenodd" d="M28.144 510.121C35.0776 506.065 38.4753 493.057 27.5703 505.129Z" fill="white" fill-opacity="0.56"/>
<path d="M28.144 510.121C35.0776 506.065 38.4753 493.057 27.5703 505.129" stroke="white" stroke-width="2" stroke-linecap="round" stroke-linejoin="round"/>
<path d="M28.3047 528.799L27.078 494.898" stroke="white" stroke-width="2" stroke-linecap="round" stroke-linejoin="round" stroke-dasharray="5 5"/>
<path fill-rule="evenodd" clip-rule="evenodd" d="M63.6354 533.602C65.7611 531.936 71.3651 528.244 69.8852 525.028C69.0909 523.302 66.1035 523.343 65.2608 525.052C63.9539 527.702 63.0512 530.523 61.9463 533.259" fill="white" fill-opacity="0.56"/>
<path d="M63.6354 533.602C65.7611 531.936 71.3651 528.244 69.8852 525.028C69.0909 523.302 66.1035 523.343 65.2608 525.052C63.9539 527.702 63.0512 530.523 61.9463 533.259" stroke="white" stroke-width="2" stroke-linecap="round" stroke-linejoin="round"/>
<path fill-rule="evenodd" clip-rule="evenodd" d="M62.9355 533.936C62.9355 525.995 52.5352 527.182 57.7433 533.959C60.09 537.012 59.4904 536.318 62.5075 538.158" fill="white" fill-opacity="0.56"/>
<path d="M62.9355 533.936C62.9355 525.995 52.5352 527.182 57.7433 533.959C60.09 537.012 59.4904 536.318 62.5075 538.158" stroke="white" stroke-width="2" stroke-linecap="round" stroke-linejoin="round"/>
<path fill-rule="evenodd" clip-rule="evenodd" d="M60.8795 516.102C60.4245 514.784 55.3671 508.078 55.3671 513.873C55.3671 516.102 56.5901 517.734 61.0378 522.094" fill="white" fill-opacity="0.56"/>
<path d="M60.8795 516.102C60.4245 514.784 55.3671 508.078 55.3671 513.873C55.3671 516.102 56.5901 517.734 61.0378 522.094" stroke="white" stroke-width="2" stroke-linecap="round" stroke-linejoin="round"/>
<path fill-rule="evenodd" clip-rule="evenodd" d="M63.144 523.959C70.0776 520.174 73.4753 508.035 62.5703 519.301Z" fill="white" fill-opacity="0.56"/>
<path d="M63.144 523.959C70.0776 520.174 73.4753 508.035 62.5703 519.301" stroke="white" stroke-width="2" stroke-linecap="round" stroke-linejoin="round"/>
<path d="M63.3047 541.39L62.078 509.754" stroke="white" stroke-width="2" stroke-linecap="round" stroke-linejoin="round" stroke-dasharray="5 5"/>
<path fill-rule="evenodd" clip-rule="evenodd" d="M82.4598 530.224C84.6168 528.427 90.3033 524.448 88.8015 520.98C87.9956 519.12 84.9642 519.163 84.1091 521.006C82.783 523.863 81.867 526.905 80.7459 529.854" fill="white" fill-opacity="0.56"/>
<path d="M82.4598 530.224C84.6168 528.427 90.3033 524.448 88.8015 520.98C87.9956 519.12 84.9642 519.163 84.1091 521.006C82.783 523.863 81.867 526.905 80.7459 529.854" stroke="white" stroke-width="2" stroke-linecap="round" stroke-linejoin="round"/>
<path fill-rule="evenodd" clip-rule="evenodd" d="M81.75 528.335C81.75 519.773 71.1967 521.053 76.4814 528.359C78.8626 531.651 78.2542 530.903 81.3156 532.887" fill="white" fill-opacity="0.56"/>
<path d="M81.75 528.335C81.75 519.773 71.1967 521.053 76.4814 528.359C78.8626 531.651 78.2542 530.903 81.3156 532.887" stroke="white" stroke-width="2" stroke-linecap="round" stroke-linejoin="round"/>
<path d="M82.125 536.37V520.402" stroke="white" stroke-width="2" stroke-linecap="round" stroke-linejoin="round" stroke-dasharray="5 5"/>
<path fill-rule="evenodd" clip-rule="evenodd" d="M100.354 554.137C102.576 552.351 108.435 548.396 106.888 544.95C106.057 543.1 102.934 543.144 102.053 544.975C100.687 547.814 99.7429 550.838 98.5878 553.77" fill="white" fill-opacity="0.56"/>
<path d="M100.354 554.137C102.576 552.351 108.435 548.396 106.888 544.95C106.057 543.1 102.934 543.144 102.053 544.975C100.687 547.814 99.7429 550.838 98.5878 553.77" stroke="white" stroke-width="2" stroke-linecap="round" stroke-linejoin="round"/>
<path fill-rule="evenodd" clip-rule="evenodd" d="M99.623 552.26C99.623 543.75 88.75 545.022 94.1948 552.284C96.6481 555.556 96.0213 554.812 99.1755 556.784" fill="white" fill-opacity="0.56"/>
<path d="M99.623 552.26C99.623 543.75 88.75 545.022 94.1948 552.284C96.6481 555.556 96.0213 554.812 99.1755 556.784" stroke="white" stroke-width="2" stroke-linecap="round" stroke-linejoin="round"/>
<path fill-rule="evenodd" clip-rule="evenodd" d="M99.526 540.374C98.6463 540.169 97.5473 540.617 94.7195 538.532C91.5211 536.173 88.1668 526.528 94.9264 530.897C96.7053 532.046 97.5454 534.165 98.8549 535.8" fill="white" fill-opacity="0.56"/>
<path d="M99.526 540.374C98.6463 540.169 97.5473 540.617 94.7195 538.532C91.5211 536.173 88.1668 526.528 94.9264 530.897C96.7053 532.046 97.5454 534.165 98.8549 535.8" stroke="white" stroke-width="2" stroke-linecap="round" stroke-linejoin="round"/>
<path fill-rule="evenodd" clip-rule="evenodd" d="M99.6906 535.384C100.166 533.971 105.454 526.785 105.454 532.995C105.454 535.384 104.175 537.133 99.5251 541.805" fill="white" fill-opacity="0.56"/>
<path d="M99.6906 535.384C100.166 533.971 105.454 526.785 105.454 532.995C105.454 535.384 104.175 537.133 99.5251 541.805" stroke="white" stroke-width="2" stroke-linecap="round" stroke-linejoin="round"/>
<path fill-rule="evenodd" clip-rule="evenodd" d="M98.2505 529.641C91.0017 525.586 87.4495 512.577 98.8502 524.649Z" fill="white" fill-opacity="0.56"/>
<path d="M98.2505 529.641C91.0017 525.586 87.4495 512.577 98.8502 524.649" stroke="white" stroke-width="2" stroke-linecap="round" stroke-linejoin="round"/>
<path d="M100.01 560.246L98.8507 521.21" stroke="white" stroke-width="2" stroke-linecap="round" stroke-linejoin="round" stroke-dasharray="5 5"/>
<path d="M195.541 582.276V597.28" stroke="white" stroke-width="2" stroke-linecap="round" stroke-linejoin="round"/>
<path d="M199.922 582.276V597.28" stroke="white" stroke-width="2" stroke-linecap="round" stroke-linejoin="round"/>
<path fill-rule="evenodd" clip-rule="evenodd" d="M195.501 547.152C193.284 548.331 191.834 550.378 191.362 552.628C191.038 552.775 190.715 552.933 190.395 553.103C189.477 553.592 188.622 554.151 187.833 554.771C186.125 554.475 184.296 554.728 182.632 555.613C178.715 557.695 177.192 562.491 179.23 566.323C179.78 567.358 180.534 568.217 181.418 568.879C181.457 569.536 181.536 570.194 181.657 570.849C179.96 573.219 179.626 576.401 181.063 579.104C182.211 581.262 184.243 582.655 186.499 583.088C186.55 583.195 186.604 583.303 186.661 583.41C188.699 587.243 193.526 588.661 197.443 586.578C198.671 585.925 199.664 585.006 200.385 583.933C201.946 583.694 203.499 583.232 204.998 582.533C207.404 584.584 210.96 585.056 213.975 583.452C217.892 581.369 219.416 576.574 217.378 572.742C216.716 571.497 215.76 570.507 214.636 569.809C215.155 566.454 214.642 562.93 212.939 559.728C211.549 557.114 209.539 555.037 207.177 553.577C207.126 552.47 206.836 551.359 206.283 550.32C204.245 546.488 199.418 545.069 195.501 547.152Z" fill="white" fill-opacity="0.24" stroke="white" stroke-width="2" stroke-linecap="round" stroke-linejoin="round"/>
<path d="M195.993 576.362C186.295 580.5 192.091 570.438 192.098 570.225C192.134 569.155 190.987 553.501 201.395 558.957" stroke="white" stroke-width="2" stroke-linecap="round" stroke-linejoin="round"/>
<path d="M228.553 598.098V613.275" stroke="white" stroke-width="2" stroke-linecap="round" stroke-linejoin="round"/>
<path d="M232.896 598.098V613.275" stroke="white" stroke-width="2" stroke-linecap="round" stroke-linejoin="round"/>
<path fill-rule="evenodd" clip-rule="evenodd" d="M211.507 597.903C211.032 595.46 211.727 593.061 213.2 591.287C213.111 590.944 213.032 590.597 212.963 590.244C212.767 589.232 212.666 588.224 212.655 587.229C211.34 586.101 210.381 584.537 210.025 582.703C209.186 578.385 211.999 574.206 216.309 573.368C217.473 573.142 218.628 573.183 219.709 573.448C220.251 573.065 220.82 572.713 221.412 572.395C222.206 569.604 224.501 567.351 227.541 566.76C229.968 566.288 232.352 566.976 234.122 568.439C234.239 568.411 234.358 568.385 234.479 568.361C238.789 567.524 242.963 570.344 243.802 574.662C244.065 576.015 243.969 577.355 243.581 578.582C244.38 579.933 245 581.417 245.399 583.008C248.538 583.57 251.161 586.007 251.807 589.332C252.647 593.649 249.833 597.828 245.523 598.666C244.123 598.938 242.737 598.824 241.475 598.398C239.161 600.902 236.06 602.718 232.458 603.418C229.519 603.989 226.61 603.747 223.964 602.848C223.058 603.503 221.999 603.976 220.83 604.203C216.52 605.041 212.346 602.22 211.507 597.903Z" fill="white" fill-opacity="0.24" stroke="white" stroke-width="2" stroke-linecap="round" stroke-linejoin="round"/>
<path d="M227.308 593.061C221.24 593.381 218.843 587.709 224.1 585.468C228.961 583.395 237.162 585.398 233.713 577.803" stroke="white" stroke-width="2" stroke-linecap="round" stroke-linejoin="round"/>
<path d="M155.049 569.145V584.277" stroke="white" stroke-width="2" stroke-linecap="round" stroke-linejoin="round"/>
<path d="M159.402 569.145V584.277" stroke="white" stroke-width="2" stroke-linecap="round" stroke-linejoin="round"/>
<path fill-rule="evenodd" clip-rule="evenodd" d="M147.431 535.637C149.926 535.637 152.153 536.773 153.616 538.554C153.969 538.53 154.326 538.519 154.686 538.519C155.719 538.519 156.731 538.612 157.712 538.791C159.072 537.718 160.794 537.078 162.667 537.078C167.074 537.078 170.647 540.627 170.647 545.004C170.647 546.187 170.386 547.309 169.919 548.316C170.191 548.92 170.429 549.544 170.628 550.183C173.223 551.492 175 554.167 175 557.254C175 559.72 173.867 561.923 172.089 563.376C172.095 563.496 172.098 563.617 172.098 563.74C172.098 568.117 168.525 571.666 164.118 571.666C162.736 571.666 161.437 571.318 160.304 570.704C158.823 571.229 157.245 571.553 155.603 571.642C154.449 574.607 151.55 576.71 148.157 576.71C143.749 576.71 140.176 573.161 140.176 568.784C140.176 567.361 140.554 566.026 141.215 564.872C139.193 562.131 138 558.75 138 555.093C138 552.107 138.795 549.307 140.185 546.887C139.714 545.877 139.451 544.75 139.451 543.563C139.451 539.186 143.024 535.637 147.431 535.637Z" fill="white" fill-opacity="0.24" stroke="white" stroke-width="2" stroke-linecap="round" stroke-linejoin="round"/>
<path d="M146.957 551.638C148.947 538.36 155.856 550.075 156.083 550.229C157.223 550.999 176.379 555.243 163.477 562.726" stroke="white" stroke-width="2" stroke-linecap="round" stroke-linejoin="round"/>
<path d="M145.5 572.637C146.881 572.637 148 571.517 148 570.137C148 568.756 146.881 567.637 145.5 567.637C144.119 567.637 143 568.756 143 570.137C143 571.517 144.119 572.637 145.5 572.637Z" fill="white" fill-opacity="0.28"/>
<path d="M163.5 548.637C164.881 548.637 166 547.517 166 546.137C166 544.756 164.881 543.637 163.5 543.637C162.119 543.637 161 544.756 161 546.137C161 547.517 162.119 548.637 163.5 548.637Z" fill="white" fill-opacity="0.28"/>
<path d="M206.5 566.637C207.881 566.637 209 565.517 209 564.137C209 562.756 207.881 561.637 206.5 561.637C205.119 561.637 204 562.756 204 564.137C204 565.517 205.119 566.637 206.5 566.637Z" fill="white" fill-opacity="0.28"/>
<path d="M202.5 576.637C203.881 576.637 205 575.517 205 574.137C205 572.756 203.881 571.637 202.5 571.637C201.119 571.637 200 572.756 200 574.137C200 575.517 201.119 576.637 202.5 576.637Z" fill="white" fill-opacity="0.28"/>
<path d="M185.5 559.637C186.881 559.637 188 558.517 188 557.137C188 555.756 186.881 554.637 185.5 554.637C184.119 554.637 183 555.756 183 557.137C183 558.517 184.119 559.637 185.5 559.637Z" fill="white" fill-opacity="0.28"/>
<path d="M226.5 577.637C227.881 577.637 229 576.517 229 575.137C229 573.756 227.881 572.637 226.5 572.637C225.119 572.637 224 573.756 224 575.137C224 576.517 225.119 577.637 226.5 577.637Z" fill="white" fill-opacity="0.28"/>
<path d="M241.5 591.637C242.881 591.637 244 590.517 244 589.137C244 587.756 242.881 586.637 241.5 586.637C240.119 586.637 239 587.756 239 589.137C239 590.517 240.119 591.637 241.5 591.637Z" fill="white" fill-opacity="0.28"/>
<path d="M222 600.637C223.105 600.637 224 599.741 224 598.637C224 597.532 223.105 596.637 222 596.637C220.895 596.637 220 597.532 220 598.637C220 599.741 220.895 600.637 222 600.637Z" fill="white" fill-opacity="0.28"/>
<path d="M158.5 560.637C159.881 560.637 161 559.517 161 558.137C161 556.756 159.881 555.637 158.5 555.637C157.119 555.637 156 556.756 156 558.137C156 559.517 157.119 560.637 158.5 560.637Z" fill="white" fill-opacity="0.28"/>
<path d="M148.5 542.637C149.881 542.637 151 541.517 151 540.137C151 538.756 149.881 537.637 148.5 537.637C147.119 537.637 146 538.756 146 540.137C146 541.517 147.119 542.637 148.5 542.637Z" fill="white" fill-opacity="0.28"/>
<path d="M552.361 518L787.637 623.274" stroke="white" stroke-width="2" stroke-linecap="round" stroke-linejoin="round"/>
<path d="M470.361 553L705.637 658.274" stroke="white" stroke-width="2" stroke-linecap="round" stroke-linejoin="round"/>
</g>
<g opacity="0.8">
<path d="M542 491.427L413.086 549.425" stroke="white" stroke-width="2" stroke-linecap="round" stroke-linejoin="round"/>
<path d="M543.402 489.637L587.827 469.637" stroke="white" stroke-width="2" stroke-linecap="round" stroke-linejoin="round" stroke-dasharray="5 5"/>
<path d="M559 459.637L466 499.82L494.447 512.637" stroke="white" stroke-width="2" stroke-linecap="round" stroke-linejoin="round"/>
<path d="M588.5 470.271V395.002" stroke="white" stroke-width="2" stroke-linecap="round" stroke-linejoin="round"/>
<path d="M588.5 394.637V345.637" stroke="white" stroke-width="2" stroke-linecap="round" stroke-linejoin="round" stroke-dasharray="5 5"/>
<path d="M402.361 387.637L588.637 470.276" stroke="white" stroke-width="2" stroke-linecap="round" stroke-linejoin="round" stroke-dasharray="5 5"/>
<path fill-rule="evenodd" clip-rule="evenodd" d="M426.363 398.501L456.07 385.637L536.633 420.654L506.926 433.494L426.363 398.501Z" fill="white" fill-opacity="0.24" stroke="white" stroke-width="2" stroke-linecap="round" stroke-linejoin="round"/>
<path fill-rule="evenodd" clip-rule="evenodd" d="M426.729 421.065L507.057 455.351L536.268 443.208V421.065L507.057 433.494L426.729 398.779V421.065Z" fill="white" fill-opacity="0.56" stroke="white" stroke-width="2" stroke-linecap="round" stroke-linejoin="round"/>
<path d="M477.54 415.437C483.033 417.049 486.296 416.67 489.939 413.185C493.583 409.7 487.941 406.708 482.448 405.097C476.955 403.485 473.271 403.913 470.049 407.349C466.826 410.785 472.048 413.826 477.54 415.437Z" stroke="white" stroke-width="2" stroke-linecap="round" stroke-linejoin="round" stroke-dasharray="5 5"/>
<mask id="mask1_390_2868" style="mask-type:luminance" maskUnits="userSpaceOnUse" x="469" y="404" width="22" height="13">
<g style="mix-blend-mode:multiply" opacity="0.8">
<path d="M479.854 416.012C485.527 415.25 488.354 413.576 490.265 408.911C492.176 404.245 485.805 403.807 480.131 404.569C474.458 405.331 471.267 407.22 469.72 411.67C468.174 416.119 474.181 416.773 479.854 416.012Z" fill="white"/>
</g>
</mask>
<g mask="url(#mask1_390_2868)">
<path fill-rule="evenodd" clip-rule="evenodd" d="M478.511 420.001C484.004 421.613 487.266 421.234 490.91 417.749C494.554 414.264 488.911 411.273 483.419 409.661C477.926 408.05 474.242 408.478 471.019 411.913C467.797 415.349 473.018 418.39 478.511 420.001Z" stroke="white" stroke-width="2" stroke-linecap="round" stroke-linejoin="round" stroke-dasharray="5 5"/>
</g>
<path d="M488.083 403.633C488.134 402.828 488.118 381.886 484.441 395.186" stroke="white" stroke-width="2" stroke-linecap="round" stroke-linejoin="round"/>
<path d="M507.057 433.494V455.066" stroke="white" stroke-width="2" stroke-linecap="round" stroke-linejoin="round"/>
<path fill-rule="evenodd" clip-rule="evenodd" d="M524 389.689L552 401.637V381.584L524 369.637V389.689Z" stroke="white" stroke-width="2" stroke-linecap="round" stroke-linejoin="round" stroke-dasharray="5 5"/>
<path fill-rule="evenodd" clip-rule="evenodd" d="M487 372.689L515 384.637V364.584L487 352.637V372.689Z" stroke="white" stroke-width="2" stroke-linecap="round" stroke-linejoin="round" stroke-dasharray="5 5"/>
</g>
<g opacity="0.8">
<path d="M413.088 549.426L305.928 597.637" stroke="white" stroke-width="2" stroke-linecap="round" stroke-linejoin="round"/>
<path d="M305.926 597.637L70 491.457L70.3214 491.427L70.6839 455.637" stroke="white" stroke-width="2" stroke-linecap="round" stroke-linejoin="round"/>
<path d="M166.361 448.637L178.639 442.637" stroke="white" stroke-width="2" stroke-linecap="round" stroke-linejoin="round" stroke-dasharray="5 5"/>
<path d="M70 491.42L98.6375 478.637" stroke="white" stroke-width="2" stroke-linecap="round" stroke-linejoin="round" stroke-dasharray="5 5"/>
<path d="M70.5 457.637V373.637" stroke="white" stroke-width="2" stroke-linecap="round" stroke-linejoin="round" stroke-dasharray="5 5"/>
<path d="M374.365 529.277L374.729 442.517" stroke="white" stroke-width="2" stroke-linecap="round" stroke-linejoin="round"/>
<path d="M374.729 421.637V442.517" stroke="white" stroke-width="2" stroke-linecap="round" stroke-linejoin="round" stroke-dasharray="5 5"/>
<path d="M420.91 509.117L421.001 460.637" stroke="white" stroke-width="2" stroke-linecap="round" stroke-linejoin="round" stroke-dasharray="5 5"/>
<path d="M420.91 509.117L421.274 490.037" stroke="white" stroke-width="2" stroke-linecap="round" stroke-linejoin="round"/>
<path d="M420.911 510.196L374.365 529.276" stroke="white" stroke-width="2" stroke-linecap="round" stroke-linejoin="round"/>
<path d="M420.911 495.797L374.365 514.877" stroke="white" stroke-width="2" stroke-linecap="round" stroke-linejoin="round" stroke-dasharray="5 5"/>
<path d="M406.365 481.396L374.729 494.356" stroke="white" stroke-width="2" stroke-linecap="round" stroke-linejoin="round" stroke-dasharray="5 5"/>
<path d="M391.819 466.997L374.729 474.197" stroke="white" stroke-width="2" stroke-linecap="round" stroke-linejoin="round" stroke-dasharray="5 5"/>
<path d="M406.365 481.396V488.18L421.093 494.356" stroke="white" stroke-width="2" stroke-linecap="round" stroke-linejoin="round" stroke-dasharray="5 5"/>
<path d="M391.457 467.717V474.5L406.184 480.677" stroke="white" stroke-width="2" stroke-linecap="round" stroke-linejoin="round" stroke-dasharray="5 5"/>
<path d="M376.91 454.037V460.82L391.637 466.997" stroke="white" stroke-width="2" stroke-linecap="round" stroke-linejoin="round" stroke-dasharray="5 5"/>
<path d="M377.274 452.597L374.729 453.317" stroke="white" stroke-width="2" stroke-linecap="round" stroke-linejoin="round" stroke-dasharray="5 5"/>
<path d="M265.25 479.285L265.375 434.812" stroke="white" stroke-width="2" stroke-linecap="round" stroke-linejoin="round" stroke-dasharray="5 5"/>
<path d="M263.363 479.999L373.638 529.274" stroke="white" stroke-width="2" stroke-linecap="round" stroke-linejoin="round"/>
<path fill-rule="evenodd" clip-rule="evenodd" d="M231.096 506.501L260.072 493.637L339.905 528.654L310.929 541.494L231.096 506.501Z" fill="white" fill-opacity="0.24" stroke="white" stroke-width="2" stroke-linecap="round" stroke-linejoin="round"/>
<path d="M230.73 506.779V529.065" stroke="white" stroke-width="2" stroke-linecap="round" stroke-linejoin="round" stroke-dasharray="5 5"/>
<path d="M311.059 541.065V563.351" stroke="white" stroke-width="2" stroke-linecap="round" stroke-linejoin="round" stroke-dasharray="5 5"/>
<path d="M340.27 528.923V551.209" stroke="white" stroke-width="2" stroke-linecap="round" stroke-linejoin="round" stroke-dasharray="5 5"/>
<path fill-rule="evenodd" clip-rule="evenodd" d="M196 479.351L181.546 472.637L141.724 490.914L156.178 497.616L196 479.351Z" fill="white" fill-opacity="0.24" stroke="white" stroke-width="2" stroke-linecap="round" stroke-linejoin="round"/>
<path d="M195.639 479.396V490.857" stroke="white" stroke-width="2" stroke-linecap="round" stroke-linejoin="round" stroke-dasharray="5 5"/>
<path d="M155.836 497.028V508.49" stroke="white" stroke-width="2" stroke-linecap="round" stroke-linejoin="round" stroke-dasharray="5 5"/>
<path d="M141.361 491.151V502.613" stroke="white" stroke-width="2" stroke-linecap="round" stroke-linejoin="round" stroke-dasharray="5 5"/>
<path fill-rule="evenodd" clip-rule="evenodd" d="M286 427.637L328.004 446.866V490.087L286 470.858V427.637Z" fill="white" fill-opacity="0.28"/>
<path fill-rule="evenodd" clip-rule="evenodd" d="M334.572 445.218L343.858 449.42V458.039L334.572 453.836V445.218Z" fill="white" fill-opacity="0.28"/>
<path fill-rule="evenodd" clip-rule="evenodd" d="M346.715 458.404L356.001 462.607V471.225L346.715 467.023V458.404Z" fill="white" fill-opacity="0.28"/>
<path fill-rule="evenodd" clip-rule="evenodd" d="M333.143 459.869L342.428 464.071V472.69L333.143 468.488V459.869Z" fill="white" fill-opacity="0.28"/>
<path fill-rule="evenodd" clip-rule="evenodd" d="M88 389.838L113 378.637V397.436L88 408.637V389.838Z" fill="white" fill-opacity="0.28"/>
<path fill-rule="evenodd" clip-rule="evenodd" d="M124 374.838L149 363.637V382.436L124 393.637V374.838Z" fill="white" fill-opacity="0.28"/>
<path d="M196 521.824L168 533.262" stroke="white" stroke-width="2" stroke-linecap="round" stroke-linejoin="round"/>
<path fill-rule="evenodd" clip-rule="evenodd" d="M100.194 445.514L156.66 420.637V442.35L177 451.778V461.976L120.533 486.591L100 477.873L100.194 445.514Z" fill="white" fill-opacity="0.24" stroke="white" stroke-width="2" stroke-linecap="round" stroke-linejoin="round"/>
<path fill-rule="evenodd" clip-rule="evenodd" d="M177 461.976L120.533 486.592L100 477.874V467.778L120.533 476.701L177 451.778V461.976Z" fill="white" fill-opacity="0.56" stroke="white" stroke-width="2" stroke-linecap="round" stroke-linejoin="round"/>
<path d="M156.66 442.35L100 467.778" stroke="white" stroke-width="2" stroke-linecap="round" stroke-linejoin="round" stroke-dasharray="5 5"/>
<path d="M217.25 458.276L217.375 409.816" stroke="white" stroke-width="2" stroke-linecap="round" stroke-linejoin="round" stroke-dasharray="5 5"/>
<path d="M180.25 441.27L180.438 378.911" stroke="white" stroke-width="2" stroke-linecap="round" stroke-linejoin="round" stroke-dasharray="5 5"/>
<path d="M180.371 443.006L216.631 459.267" stroke="white" stroke-width="2" stroke-linecap="round" stroke-linejoin="round"/>
<path d="M236 449.637L216 458.262" stroke="white" stroke-width="2" stroke-linecap="round" stroke-linejoin="round" stroke-dasharray="5 5"/>
<path fill-rule="evenodd" clip-rule="evenodd" d="M194 391.637L207 397.111V428.637L194 423.162V391.637Z" fill="white" fill-opacity="0.28"/>
</g>
<g opacity="0.8">
<path d="M476.355 346.967L589 296.637" stroke="white" stroke-width="2" stroke-linecap="round" stroke-linejoin="round"/>
<path d="M275.18 288.206L418.64 222.995" stroke="white" stroke-width="2" stroke-linecap="round" stroke-linejoin="round" stroke-dasharray="5 5"/>
<path d="M589.25 295.267L589.5 259.007" stroke="white" stroke-width="2" stroke-linecap="round" stroke-linejoin="round"/>
<path d="M418.5 222.637V150.637" stroke="white" stroke-width="2" stroke-linecap="round" stroke-linejoin="round" stroke-dasharray="5 5"/>
<path d="M589.5 262.637V193.637" stroke="white" stroke-width="2" stroke-linecap="round" stroke-linejoin="round" stroke-dasharray="5 5"/>
<path d="M517 265.5L589 297" stroke="white" stroke-width="2" stroke-linecap="round" stroke-linejoin="round"/>
<path d="M436 230L468 244" stroke="white" stroke-width="2" stroke-linecap="round" stroke-linejoin="round"/>
<path d="M343.361 320.817L439.637 364.096" stroke="white" stroke-width="2" stroke-linecap="round" stroke-linejoin="round"/>
<path d="M390.365 301.004L443.635 325.269" stroke="white" stroke-width="2" stroke-linecap="round" stroke-linejoin="round"/>
<path d="M436.999 344.637L416.361 351.637" stroke="white" stroke-width="2" stroke-linecap="round" stroke-linejoin="round" stroke-dasharray="5 5"/>
<path d="M421.001 328.637L390.361 341.637" stroke="white" stroke-width="2" stroke-linecap="round" stroke-linejoin="round" stroke-dasharray="5 5"/>
<path d="M407.999 314.637L367.379 331.637" stroke="white" stroke-width="2" stroke-linecap="round" stroke-linejoin="round" stroke-dasharray="5 5"/>
<path d="M389 300.637L344 319.637" stroke="white" stroke-width="2" stroke-linecap="round" stroke-linejoin="round"/>
<path d="M422 328.637V335.441L437 341.637" stroke="white" stroke-width="2" stroke-linecap="round" stroke-linejoin="round" stroke-dasharray="5 5"/>
<path d="M437 344.637V351.441L452 357.637" stroke="white" stroke-width="2" stroke-linecap="round" stroke-linejoin="round" stroke-dasharray="5 5"/>
<path d="M407 314.637V321.441L422 327.637" stroke="white" stroke-width="2" stroke-linecap="round" stroke-linejoin="round" stroke-dasharray="5 5"/>
<path d="M392 302.637V309.441L407 315.637" stroke="white" stroke-width="2" stroke-linecap="round" stroke-linejoin="round" stroke-dasharray="5 5"/>
<path fill-rule="evenodd" clip-rule="evenodd" d="M524 251.49L486.884 234.637L422.583 263.118L459.699 279.951L524 251.49Z" fill="white" fill-opacity="0.24" stroke="white" stroke-width="2" stroke-linecap="round" stroke-linejoin="round"/>
<path fill-rule="evenodd" clip-rule="evenodd" d="M523.709 262.29L459.595 290.176L422.583 273.386V262.928L459.595 279.951L523.709 251.717V262.29Z" fill="white" fill-opacity="0.56" stroke="white" stroke-width="2" stroke-linecap="round" stroke-linejoin="round"/>
<path d="M459.594 279.951V295.172" stroke="white" stroke-width="2" stroke-linecap="round" stroke-linejoin="round" stroke-dasharray="5 5"/>
<path d="M523.709 251.484V266.705" stroke="white" stroke-width="2" stroke-linecap="round" stroke-linejoin="round"/>
<path d="M422.582 263.104V278.324" stroke="white" stroke-width="2" stroke-linecap="round" stroke-linejoin="round"/>
<path d="M508 258.457L470.438 240.877" stroke="white" stroke-width="2" stroke-linecap="round" stroke-linejoin="round"/>
<path d="M507.5 259.042L507.312 269.26" stroke="white" stroke-width="2" stroke-linecap="round" stroke-linejoin="round"/>
<path fill-rule="evenodd" clip-rule="evenodd" d="M497 194.637L549 217.929V236.637L497 213.345V194.637Z" fill="white" fill-opacity="0.28"/>
<path fill-rule="evenodd" clip-rule="evenodd" d="M509 249.774L493.434 242.637L486 245.499L501.566 252.637L509 249.774Z" fill="white" fill-opacity="0.56" stroke="white" stroke-width="2" stroke-linecap="round" stroke-linejoin="round"/>
<path d="M564.5 221.637V277.637" stroke="white" stroke-width="2" stroke-linecap="round" stroke-linejoin="round" stroke-dasharray="5 5"/>
<path d="M566 277.034L490 310.637V254.239L566 220.637" stroke="white" stroke-width="2" stroke-linecap="round" stroke-linejoin="round" stroke-dasharray="5 5"/>
<path fill-rule="evenodd" clip-rule="evenodd" d="M438 214.926L414.757 204.637L350.721 232.645L373.964 242.915L438 214.926Z" fill="white" fill-opacity="0.24" stroke="white" stroke-width="2" stroke-linecap="round" stroke-linejoin="round"/>
<path d="M437.639 214.791V232.761" stroke="white" stroke-width="2" stroke-linecap="round" stroke-linejoin="round" stroke-dasharray="5 5"/>
<path d="M374.164 242.437V260.406" stroke="white" stroke-width="2" stroke-linecap="round" stroke-linejoin="round" stroke-dasharray="5 5"/>
<path d="M350.361 232.513V250.482" stroke="white" stroke-width="2" stroke-linecap="round" stroke-linejoin="round" stroke-dasharray="5 5"/>
<path d="M413.532 221.332C414.822 221.88 416.122 221.726 416.435 220.989C416.748 220.252 415.956 219.21 414.665 218.662C413.374 218.114 412.074 218.268 411.761 219.005C411.448 219.742 412.241 220.784 413.532 221.332Z" stroke="white" stroke-width="2" stroke-linecap="round" stroke-linejoin="round"/>
<path fill-rule="evenodd" clip-rule="evenodd" d="M413 224.056L407.94 221.637L394 228.222L399.06 230.637L413 224.056Z" fill="white" fill-opacity="0.56" stroke="white" stroke-width="2" stroke-linecap="round" stroke-linejoin="round"/>
<path d="M390.839 226.391C393.253 225.415 394.906 223.872 394.531 222.944C394.156 222.015 391.895 222.053 389.481 223.029C387.067 224.004 385.413 225.548 385.789 226.476C386.164 227.404 388.425 227.366 390.839 226.391Z" stroke="white" stroke-width="2" stroke-linecap="round" stroke-linejoin="round"/>
<path fill-rule="evenodd" clip-rule="evenodd" d="M379 210.961L400 200.637V219.313L379 229.637V210.961Z" fill="white" fill-opacity="0.56" stroke="white" stroke-width="2" stroke-linecap="round" stroke-linejoin="round"/>
<path d="M423.225 232.695V246.386" stroke="white" stroke-width="2" stroke-linecap="round" stroke-linejoin="round" stroke-dasharray="5 5"/>
<path fill-rule="evenodd" clip-rule="evenodd" d="M436.275 217.846L423.225 209.637V231.693L436.275 239.901V217.846Z" fill="white" fill-opacity="0.56" stroke="white" stroke-width="2" stroke-linecap="round" stroke-linejoin="round"/>
<path fill-rule="evenodd" clip-rule="evenodd" d="M436.275 239.901L423.225 232.335L408.725 237.496L420.514 245.176L436.275 239.901Z" fill="white" fill-opacity="0.56" stroke="white" stroke-width="2" stroke-linecap="round" stroke-linejoin="round"/>
<path d="M408.725 237.739V251.43" stroke="white" stroke-width="2" stroke-linecap="round" stroke-linejoin="round" stroke-dasharray="5 5"/>
<path d="M420.326 244.945V258.636" stroke="white" stroke-width="2" stroke-linecap="round" stroke-linejoin="round" stroke-dasharray="5 5"/>
<path d="M436.275 239.901V253.593" stroke="white" stroke-width="2" stroke-linecap="round" stroke-linejoin="round" stroke-dasharray="5 5"/>
<path fill-rule="evenodd" clip-rule="evenodd" d="M446.106 179.074L455.222 183.881L454.627 192.392L445.51 187.585L446.106 179.074Z" fill="white" fill-opacity="0.28"/>
<path fill-rule="evenodd" clip-rule="evenodd" d="M459.405 191.6L467.763 197.629L465.989 205.974L457.63 199.945L459.405 191.6Z" fill="white" fill-opacity="0.28"/>
<path fill-rule="evenodd" clip-rule="evenodd" d="M462 177.637L470 181.898V190.637L462 186.376V177.637Z" fill="white" fill-opacity="0.28"/>
<path fill-rule="evenodd" clip-rule="evenodd" d="M472 187.637L480 191.898V200.637L472 196.376V187.637Z" fill="white" fill-opacity="0.28"/>
<path fill-rule="evenodd" clip-rule="evenodd" d="M432.828 179.056L442.917 181.165L444.691 189.51L434.602 187.401L432.828 179.056Z" fill="white" fill-opacity="0.28"/>
<path fill-rule="evenodd" clip-rule="evenodd" d="M437 167.637L445 171.898V180.637L437 176.376V167.637Z" fill="white" fill-opacity="0.28"/>
<path fill-rule="evenodd" clip-rule="evenodd" d="M458 206.637L466 210.898V219.637L458 215.376V206.637Z" fill="white" fill-opacity="0.28"/>
<path fill-rule="evenodd" clip-rule="evenodd" d="M425.795 185.601L434.912 190.408L434.316 198.919L425.2 194.111L425.795 185.601Z" fill="white" fill-opacity="0.28"/>
<path fill-rule="evenodd" clip-rule="evenodd" d="M421.223 165.278L431.311 167.387L433.086 175.732L422.997 173.623L421.223 165.278Z" fill="white" fill-opacity="0.28"/>
<path fill-rule="evenodd" clip-rule="evenodd" d="M451.688 162.378L461.776 164.487L463.551 172.832L453.462 170.723L451.688 162.378Z" fill="white" fill-opacity="0.28"/>
<path fill-rule="evenodd" clip-rule="evenodd" d="M445 194.637L453 198.898V207.637L445 203.376V194.637Z" fill="white" fill-opacity="0.28"/>
<path d="M317.363 267.817L345.638 280.095" stroke="white" stroke-width="2" stroke-linecap="round" stroke-linejoin="round"/>
</g>
<g opacity="0.8">
<path d="M307 422.636L476.356 346.967" stroke="white" stroke-width="2" stroke-linecap="round" stroke-linejoin="round"/>
<path d="M71 316.637L305 422.637" stroke="white" stroke-width="2" stroke-linecap="round" stroke-linejoin="round"/>
<path d="M71 316.637L202.639 258" stroke="white" stroke-width="2" stroke-linecap="round" stroke-linejoin="round" stroke-dasharray="5 5"/>
<path d="M70.25 316.267L70.5 280.007" stroke="white" stroke-width="2" stroke-linecap="round" stroke-linejoin="round"/>
<path d="M70.5 282.637V210.637" stroke="white" stroke-width="2" stroke-linecap="round" stroke-linejoin="round" stroke-dasharray="5 5"/>
<path d="M206.5 256.636V233" stroke="white" stroke-width="2" stroke-linecap="round" stroke-linejoin="round" stroke-dasharray="5 5"/>
<path d="M203.361 257.815L301.639 300.099" stroke="white" stroke-width="2" stroke-linecap="round" stroke-linejoin="round"/>
<path fill-rule="evenodd" clip-rule="evenodd" d="M255 287.91L208.423 266.637L127.731 302.588L174.308 323.837L255 287.91Z" fill="white" fill-opacity="0.24" stroke="white" stroke-width="2" stroke-linecap="round" stroke-linejoin="round"/>
<path fill-rule="evenodd" clip-rule="evenodd" d="M254.635 301.543L174.178 336.743L127.732 315.549V302.349L174.178 323.836L254.635 288.196V301.543Z" fill="white" fill-opacity="0.56" stroke="white" stroke-width="2" stroke-linecap="round" stroke-linejoin="round"/>
<path d="M174.178 323.837V343.05" stroke="white" stroke-width="2" stroke-linecap="round" stroke-linejoin="round" stroke-dasharray="5 5"/>
<path d="M254.635 287.903V307.117" stroke="white" stroke-width="2" stroke-linecap="round" stroke-linejoin="round" stroke-dasharray="5 5"/>
<path d="M127.73 302.57V321.784" stroke="white" stroke-width="2" stroke-linecap="round" stroke-linejoin="round" stroke-dasharray="5 5"/>
<path fill-rule="evenodd" clip-rule="evenodd" d="M244.029 287.759L228.451 280.57L221.012 283.454L236.59 290.643L244.029 287.759Z" fill="white" fill-opacity="0.56" stroke="white" stroke-width="2" stroke-linecap="round" stroke-linejoin="round"/>
<path fill-rule="evenodd" clip-rule="evenodd" d="M224.279 278.959L208.701 271.771L201.262 274.654L216.84 281.843L224.279 278.959Z" fill="white" fill-opacity="0.56" stroke="white" stroke-width="2" stroke-linecap="round" stroke-linejoin="round"/>
<path d="M225.285 299.894L180.953 279.624" stroke="white" stroke-width="2" stroke-linecap="round" stroke-linejoin="round" stroke-dasharray="5 5"/>
<path d="M225.285 302.094L225.067 313.571" stroke="white" stroke-width="2" stroke-linecap="round" stroke-linejoin="round" stroke-dasharray="5 5"/>
<path d="M236.988 296.227L189.994 274.74" stroke="white" stroke-width="2" stroke-linecap="round" stroke-linejoin="round"/>
<path d="M236.988 296.227L236.714 309.17" stroke="white" stroke-width="2" stroke-linecap="round" stroke-linejoin="round"/>
<path fill-rule="evenodd" clip-rule="evenodd" d="M292.707 353.886L310.384 345.637V367.801L292.707 376.051V353.886Z" fill="white" fill-opacity="0.56" stroke="white" stroke-width="2" stroke-linecap="round" stroke-linejoin="round"/>
<path fill-rule="evenodd" clip-rule="evenodd" d="M292.707 376.233L310.646 368.085L315.939 370.16L298 378.308L292.707 376.233Z" fill="white" fill-opacity="0.56" stroke="white" stroke-width="2" stroke-linecap="round" stroke-linejoin="round"/>
<path d="M293 375L293 380" stroke="white" stroke-width="2" stroke-linecap="round" stroke-linejoin="round"/>
<path fill-rule="evenodd" clip-rule="evenodd" d="M386.904 364.501L357.928 351.637L278.095 386.654L307.071 399.494L386.904 364.501Z" fill="white" fill-opacity="0.24" stroke="white" stroke-width="2" stroke-linecap="round" stroke-linejoin="round"/>
<path d="M387.27 364.779V387.065" stroke="white" stroke-width="2" stroke-linecap="round" stroke-linejoin="round" stroke-dasharray="5 5"/>
<path d="M306.941 399.065V421.351" stroke="white" stroke-width="2" stroke-linecap="round" stroke-linejoin="round" stroke-dasharray="5 5"/>
<path d="M277.73 386.923V409.209" stroke="white" stroke-width="2" stroke-linecap="round" stroke-linejoin="round" stroke-dasharray="5 5"/>
<path fill-rule="evenodd" clip-rule="evenodd" d="M309 381.764L327.291 373.637L340 378.51L321.709 386.637L309 381.764Z" fill="white" fill-opacity="0.56" stroke="white" stroke-width="2" stroke-linecap="round" stroke-linejoin="round"/>
<path fill-rule="evenodd" clip-rule="evenodd" d="M322 370.825L340 362.637V377.449L322 385.637V370.825Z" fill="white" fill-opacity="0.56" stroke="white" stroke-width="2" stroke-linecap="round" stroke-linejoin="round"/>
<path fill-rule="evenodd" clip-rule="evenodd" d="M352 367.137V373.137L351.94 373.137C351.662 373.993 350.451 374.637 349 374.637C347.549 374.637 346.338 373.993 346.06 373.137L346 373.137V367.137H352Z" fill="white" fill-opacity="0.56" stroke="white" stroke-width="2" stroke-linecap="round" stroke-linejoin="round"/>
<path d="M349 369.387C350.657 369.387 352 368.547 352 367.512C352 366.476 350.657 365.637 349 365.637C347.343 365.637 346 366.476 346 367.512C346 368.547 347.343 369.387 349 369.387Z" fill="white" fill-opacity="0.56" stroke="white" stroke-width="2" stroke-linecap="round" stroke-linejoin="round"/>
<path fill-rule="evenodd" clip-rule="evenodd" d="M371 364.263L358.609 358.637L350 362.01L362.391 367.637L371 364.263Z" fill="white" fill-opacity="0.56" stroke="white" stroke-width="2" stroke-linecap="round" stroke-linejoin="round"/>
<path d="M361.357 358.037L370.643 361.237" stroke="white" stroke-width="2" stroke-linecap="round" stroke-linejoin="round"/>
<path fill-rule="evenodd" clip-rule="evenodd" d="M144 211.637L99 232.261V267.637L144 247.012V211.637Z" fill="white" fill-opacity="0.28"/>
<path fill-rule="evenodd" clip-rule="evenodd" d="M299 337.195L274.234 325.637L206 357.1L230.766 368.637L299 337.195Z" fill="white" fill-opacity="0.28"/>
</g>
<g opacity="0.8">
<path fill-rule="evenodd" clip-rule="evenodd" d="M615.914 177.424L357.263 61.2598L358.712 62.28L189.9 1.72559L21.0878 149.835L20.3633 149.109L279.015 265.274L279.081 264.941L447.893 116.832L616.704 177.386" fill="white" fill-opacity="0.12"/>
<path d="M615.914 177.424L357.263 61.2598L358.712 62.28L189.9 1.72559L21.0878 149.835L20.3633 149.109L279.015 265.274L279.081 264.941L447.893 116.832L616.704 177.386" stroke="white" stroke-width="2" stroke-linecap="round" stroke-linejoin="round"/>
<path d="M189.176 1L447.827 117.164" stroke="white" stroke-width="2" stroke-linecap="round" stroke-linejoin="round" stroke-dasharray="5 5"/>
</g>
</svg>
