<svg width="493" height="156" viewBox="0 0 493 156" fill="none" xmlns="http://www.w3.org/2000/svg">
<path d="M217 67.7241H0V77.7241H217V67.7241Z" fill="white"/>
<path d="M493 67.7241H217V77.7241H493V67.7241Z" fill="#E9AA43"/>
<path d="M493 0H217V10H493V0Z" fill="#E9AA43"/>
<path d="M217 0L217 78L227 78L227 -4.37114e-07L217 0Z" fill="#E9AA43"/>
<path d="M483 0L483 78L493 78L493 -4.37114e-07L483 0Z" fill="#E9AA43"/>
<path d="M189.86 113.102H188.921C187.561 113.102 186.255 113.814 185.003 115.239C183.772 116.642 183.157 118.326 183.157 120.29V120.809C183.157 121.607 183.599 122.007 184.485 122.007L184.808 122.072H187.108L187.269 122.039L192.677 121.715C193.001 121.651 193.217 121.618 193.325 121.618C194.426 121.618 194.977 121.046 194.977 119.902V118.833C194.977 117.387 194.458 116.07 193.422 114.883C192.386 113.695 191.199 113.102 189.86 113.102ZM183.545 128.516C183.545 130.675 184.56 132.542 186.589 134.118C188.101 135.305 190.022 135.899 192.354 135.899C193.411 135.899 194.977 135.597 197.049 134.992C199.143 134.388 200.352 134.086 200.676 134.086C201.647 134.086 202.133 134.614 202.133 135.672C202.133 136.924 200.838 138.198 198.247 139.493C195.678 140.767 193.012 141.404 190.249 141.404H188.824C188.781 141.404 188.727 141.404 188.662 141.404C186.913 141.404 185.132 141.048 183.319 140.335C179.735 138.954 177.188 136.536 175.676 133.082C174.64 130.707 174.122 128.451 174.122 126.314V124.824C174.122 122.644 174.5 120.539 175.255 118.509C176.68 114.688 179.195 111.936 182.801 110.252C184.96 109.259 187.226 108.762 189.601 108.762H190.346C193.865 108.762 196.833 109.852 199.251 112.033C200.525 113.199 201.496 114.602 202.166 116.243C202.856 117.883 203.202 119.556 203.202 121.262C203.202 122.946 202.371 124.058 200.708 124.597C198.377 125.353 194.059 125.731 187.755 125.731C186.071 125.731 184.949 125.947 184.387 126.378C183.826 126.789 183.545 127.501 183.545 128.516Z" fill="white"/>
<path d="M156.441 118.607L156.376 117.506C156.376 115.843 155.923 114.44 155.016 113.296C154.131 112.13 153.084 111.547 151.875 111.547H151.486C150.385 111.547 149.414 112.184 148.572 113.458C147.73 114.71 147.309 116.199 147.309 117.927V119.578C147.309 121.651 147.795 123.388 148.766 124.792C149.759 126.195 150.839 126.897 152.004 126.897H152.231C153.332 126.897 154.293 126.368 155.113 125.31C155.955 124.23 156.376 122.989 156.376 121.586L156.409 121.392L156.441 121.165L156.473 120.485V118.833L156.441 118.607ZM158.222 141.015C157.186 140.843 156.279 140.756 155.502 140.756L155.243 140.724L155.016 140.692L153.559 140.595C153.386 140.573 153.235 140.562 153.105 140.562L152.037 140.465H151.324L151.098 140.497L150.418 140.53L149.543 140.627C148.507 140.627 147.568 141.08 146.726 141.987C145.884 142.915 145.463 144.016 145.463 145.29V145.97C145.463 147.352 145.992 148.41 147.05 149.144C148.129 149.899 149.489 150.277 151.13 150.277H152.555C155.318 150.277 157.736 149.521 159.809 148.01C161.104 147.06 161.752 145.722 161.752 143.995L161.719 143.768C161.719 143.099 161.428 142.473 160.845 141.89C160.262 141.307 159.388 141.015 158.222 141.015ZM169.232 110.09C169.642 110.5 169.847 111.148 169.847 112.033C169.847 112.918 169.416 113.555 168.552 113.943C167.084 114.591 166.307 115.001 166.221 115.174C165.961 115.671 165.832 116.469 165.832 117.57L165.864 118.412C165.929 119.297 165.961 119.945 165.961 120.355C165.961 121.759 165.605 123.129 164.893 124.468C162.95 128.181 159.366 130.351 154.142 130.977C151.832 131.257 150.634 131.409 150.547 131.43C149.187 131.884 148.507 132.564 148.507 133.47C148.507 134.269 148.939 134.82 149.802 135.122C150.666 135.402 153.052 135.672 156.959 135.931C160.888 136.19 163.533 136.687 164.893 137.421C166.274 138.155 167.268 139.008 167.872 139.979C168.498 140.929 168.811 142.268 168.811 143.995C168.811 145.722 168.315 147.298 167.322 148.723C165.292 151.637 162.097 153.699 157.736 154.908C155.577 155.512 153.332 155.814 151.001 155.814H149.997C146.024 155.814 142.98 155.07 140.865 153.58C138.771 152.112 137.724 150.309 137.724 148.172C137.724 146.747 138.188 145.387 139.116 144.092C139.289 143.854 139.742 143.325 140.476 142.505C141.232 141.685 141.61 141.059 141.61 140.627C141.61 140.584 141.221 140.022 140.444 138.943C139.667 137.842 139.278 136.741 139.278 135.64C139.278 134.539 139.861 133.233 141.027 131.722C142.192 130.21 142.775 129.358 142.775 129.163C142.775 128.969 142.203 128.246 141.059 126.994C139.936 125.698 139.116 124.122 138.598 122.266C138.425 121.64 138.339 120.992 138.339 120.323C138.339 120.258 138.339 120.183 138.339 120.096C138.339 118.866 138.587 117.624 139.084 116.372C139.904 114.3 141.232 112.702 143.067 111.58C145.593 110.004 148.529 109.216 151.875 109.216H152.846C153.019 109.216 154.293 109.302 156.668 109.475L158.416 109.669C159.388 109.777 159.949 109.831 160.1 109.831L167.127 109.442C168.142 109.442 168.844 109.658 169.232 110.09Z" fill="white"/>
<path d="M114.214 136.709H114.765C116.729 136.709 118.186 135.964 119.136 134.474C119.784 133.459 120.108 131.182 120.108 127.641V123.14C120.108 119.405 119.719 116.858 118.942 115.498C118.186 114.116 116.708 113.425 114.505 113.425H114.214C112.228 113.425 110.555 114.451 109.195 116.502C107.835 118.531 107.155 121.035 107.155 124.014V126.119C107.155 128.883 107.683 131.15 108.741 132.92C110.253 135.446 112.077 136.709 114.214 136.709ZM118.91 109.734C119.924 109.734 120.432 108.568 120.432 106.236C120.432 102.437 119.611 99.8137 117.97 98.3673C116.74 97.3095 116.125 96.6078 116.125 96.2624C116.125 95.5716 117.139 94.9023 119.169 94.2547C121.198 93.607 123.044 93.2832 124.706 93.2832C126.368 93.2832 127.448 93.4667 127.944 93.8337C128.462 94.2007 128.808 94.9995 128.981 96.23C129.175 97.4606 129.272 103.451 129.272 114.202C129.272 124.932 129.391 130.998 129.628 132.402C129.866 133.783 130.308 134.874 130.956 135.672C130.999 135.737 131.409 136.05 132.186 136.611C132.964 137.173 133.352 137.637 133.352 138.004V138.554C133.352 138.878 133.136 139.224 132.705 139.591C131.409 140.67 128.614 141.21 124.317 141.21C123.195 141.21 122.331 140.821 121.727 140.044C121.122 139.267 120.799 138.878 120.755 138.878C120.345 138.9 119.644 139.17 118.65 139.688C116.34 140.94 114.203 141.566 112.239 141.566C112.195 141.566 112.163 141.566 112.142 141.566H111.3C109.724 141.566 108.158 141.199 106.604 140.465C103.387 138.954 101.121 136.363 99.8037 132.693C99.1344 130.793 98.7998 128.883 98.7998 126.961V126.087C98.7998 126.022 98.7998 125.968 98.7998 125.925C98.7998 123.442 99.2424 121.111 100.128 118.93C102.653 112.648 107.273 109.507 113.987 109.507C115.65 109.507 116.632 109.518 116.934 109.539L117.614 109.604C118.348 109.69 118.78 109.734 118.91 109.734Z" fill="white"/>
<path d="M79.7591 98.7237C79.7591 97.4716 80.2448 96.4137 81.2163 95.5502C82.2094 94.6867 83.278 94.2549 84.4222 94.2549H85.4585C85.7823 94.3196 86.0522 94.352 86.268 94.352C87.3043 94.352 88.2218 94.8162 89.0206 95.7445C89.8194 96.6728 90.2188 97.5579 90.2188 98.3999V99.2418C90.1756 99.4577 90.154 99.6196 90.154 99.7276C90.154 100.634 89.6466 101.519 88.632 102.383C87.6173 103.247 86.4947 103.678 85.2642 103.678H84.2603C83.0513 103.678 82.0043 103.3 81.1192 102.545C80.2556 101.768 79.8239 100.883 79.8239 99.8895L79.7591 99.5657V98.7237ZM85.9118 140.854H82.8355C79.9642 140.854 78.2371 140.778 77.6542 140.627C77.0929 140.454 76.8123 139.99 76.8123 139.235C76.8123 138.457 77.352 137.529 78.4314 136.45C79.5108 135.37 80.1909 134.291 80.4715 133.211C80.7522 132.11 80.8925 129.271 80.8925 124.695C80.8925 120.096 80.7738 117.387 80.5363 116.567C80.2988 115.746 79.554 115.045 78.3019 114.462C77.0713 113.857 76.4561 113.145 76.4561 112.324C76.4561 111.483 77.0281 110.867 78.1723 110.479C80.763 109.615 83.6234 109.183 86.7538 109.183H87.2395C88.4917 109.183 89.2149 109.712 89.4092 110.77C89.5171 111.375 89.5711 115.001 89.5711 121.651C89.5711 128.278 89.7114 132.164 89.9921 133.309C90.2943 134.431 91.0499 135.629 92.2589 136.903C93.4678 138.177 94.0723 138.976 94.0723 139.299V139.688C94.0723 140.465 91.3521 140.854 85.9118 140.854Z" fill="white"/>
<path d="M61.106 112.454C63.6102 110.727 65.7475 109.863 67.5178 109.863C69.288 109.863 70.4862 110.241 71.1123 110.997C71.7599 111.752 72.0838 112.659 72.0838 113.717C72.0838 114.775 71.7923 115.724 71.2094 116.566C70.6481 117.387 70.0005 117.797 69.2664 117.797C68.554 117.797 67.561 117.516 66.2872 116.955C65.0135 116.394 64.0312 116.113 63.3404 116.113C62.6496 116.113 61.8724 116.48 61.0088 117.214C60.1453 117.948 59.5408 118.995 59.1954 120.355C58.8716 121.715 58.7096 123.853 58.7096 126.767C58.7096 129.66 58.9147 131.538 59.3249 132.402C59.7351 133.244 60.5771 134.355 61.8508 135.737C63.1245 137.119 63.7614 138.252 63.7614 139.137C63.7614 140.173 61.2571 140.692 56.2486 140.692H53.4636L52.7836 140.659C52.3302 140.638 51.8661 140.627 51.3911 140.627L50.7111 140.594C50.2577 140.573 49.7828 140.562 49.2862 140.562C47.0195 140.562 45.8861 140.076 45.8861 139.105C45.8861 138.133 46.4474 137.151 47.57 136.158C48.7142 135.165 49.405 134.269 49.6425 133.47C49.9015 132.671 50.0311 129.93 50.0311 125.245C50.0311 120.56 49.8799 117.754 49.5777 116.825C49.297 115.897 48.5954 115.109 47.4728 114.462C46.3718 113.792 45.8213 113.101 45.8213 112.389C45.8213 111.396 46.5661 110.694 48.0557 110.284C50.3009 109.68 52.3302 109.377 54.1437 109.377C55.9571 109.377 57.1769 109.583 57.8029 109.993C58.062 110.165 58.3534 110.716 58.6773 111.644C59.0227 112.573 59.4221 113.037 59.8754 113.037C60.0697 113.037 60.4799 112.842 61.106 112.454Z" fill="white"/>
<path d="M17.0009 113.264L17.0657 114.397C17.0657 115.066 17.5407 115.401 18.4905 115.401H19.9802L20.2392 115.368L21.9879 115.304C22.1606 115.282 22.3333 115.271 22.506 115.271C24.1683 115.271 25.6903 114.656 27.072 113.426C28.4537 112.173 29.1445 110.597 29.1445 108.698L29.2093 108.179V107.143C29.2093 105.179 28.5076 103.57 27.1044 102.318C25.7227 101.066 23.6394 100.44 20.8545 100.44H19.5916C18.1667 100.44 17.3356 100.785 17.0981 101.476C17.0117 101.735 16.9686 103.635 16.9686 107.176V113.005L17.0009 113.264ZM16.9686 133.082L17.0333 134.41C17.0333 135.683 18.1883 136.32 20.4983 136.32L20.7897 136.353L21.0488 136.385L22.2146 136.417H23.6718C25.8091 136.417 27.6225 135.737 29.1121 134.377C30.6233 133.017 31.3789 131.171 31.3789 128.84V127.609C31.3789 125.429 30.6017 123.561 29.0473 122.007C27.493 120.453 25.1182 119.675 21.9231 119.675H19.9154C18.2747 119.675 17.3679 119.87 17.1952 120.258C17.0441 120.625 16.9686 123.086 16.9686 127.642L16.9362 128.192V129.002L16.9038 129.261V129.811L16.8714 130.912V131.171L16.9038 131.43V131.981L16.9362 132.24C16.9362 132.434 16.9362 132.629 16.9362 132.823L16.9686 133.082ZM18.7496 95.874H22.247C27.6009 95.874 31.638 96.8455 34.3581 98.7885C37.0783 100.731 38.4384 103.344 38.4384 106.625C38.4384 108.503 38.0066 110.23 37.143 111.806C36.2795 113.382 35.2325 114.58 34.0019 115.401C32.793 116.2 32.1885 116.653 32.1885 116.761C32.1885 116.869 33.0196 117.344 34.682 118.186C36.3659 119.028 37.7043 120.032 38.6974 121.197C40.2734 123.076 41.0614 125.116 41.0614 127.318V128.16C41.0614 134.593 37.2078 138.663 29.5007 140.368C27.4498 140.821 24.5569 141.048 20.8221 141.048H19.1058L18.2315 141.016C17.6486 140.994 17.0765 140.983 16.5152 140.983L14.7989 140.919C14.2376 140.897 13.6655 140.886 13.0826 140.886L8.90523 140.789C6.55208 140.789 5.15962 140.746 4.72785 140.659C3.60525 140.444 3.04395 139.915 3.04395 139.073C3.04395 138.468 3.75637 137.572 5.18121 136.385C6.13111 135.586 6.75717 134.356 7.05941 132.693C7.38324 131.031 7.54516 126.109 7.54516 117.927C7.54516 109.723 7.39404 105.017 7.0918 103.808C6.81115 102.599 6.06634 101.519 4.85738 100.57C3.67001 99.6196 3.07633 98.7777 3.07633 98.0437C3.07633 97.2881 3.4973 96.7807 4.33926 96.5217C5.2028 96.2626 7.49119 96.1331 11.2044 96.1331L14.5722 96.0036C16.8174 95.9172 18.2099 95.874 18.7496 95.874Z" fill="white"/>
<path d="M467.444 32.0293V31.9806V29.9832C467.444 28.2294 466.762 27.8884 465.203 27.8397C463.255 27.791 460.916 27.7423 458.676 27.7423C456.386 27.7423 454.145 27.791 452.391 27.8397C450.589 27.8884 450.053 28.3756 450.053 29.8371V31.9319C450.053 33.2959 448.932 33.9779 447.812 33.9779C446.691 33.9779 445.571 33.2959 445.571 31.9319C445.571 31.2985 445.571 30.3729 445.571 29.4961C445.571 27.2551 445.668 24.186 450.54 24.0399C452.245 23.9912 454.096 23.9425 455.996 23.9425L455.947 20.4836V20.4349C455.947 18.9247 457.165 18.1453 458.432 18.1453C459.65 18.1453 460.916 18.9247 460.916 20.4349V20.4836L460.868 23.9425C463.011 23.9425 465.155 23.9425 467.055 24.0399C470.221 24.186 472.072 25.5988 472.072 28.5217C472.072 31.9319 472.072 31.9319 472.072 31.9319C471.975 33.2959 470.806 34.0266 469.637 34.0266C468.516 34.0266 467.444 33.3446 467.444 32.0293ZM464.668 35.1471H452.927C451.563 35.1471 450.881 34.1728 450.881 33.1985C450.881 32.2241 451.563 31.2498 452.927 31.2498H464.668C465.934 31.2498 466.568 32.2241 466.568 33.1985C466.568 34.1728 465.934 35.1471 464.668 35.1471ZM468.565 51.8079V51.7592C468.565 50.3952 469.588 49.8106 470.66 49.8106C471.439 49.8106 473.144 50.1516 473.144 52.1489C473.144 59.0666 470.513 60.3819 465.252 60.3819C460.186 60.3819 458.87 58.2871 458.87 54.7796C458.87 53.1233 458.919 45.6697 459.017 42.4545L448.055 42.5519C446.74 42.5519 446.058 41.5289 446.058 40.5058C446.058 39.5315 446.74 38.5085 448.055 38.5085H470.172C471.439 38.5085 472.072 39.5315 472.072 40.5546C472.072 41.5776 471.439 42.5519 470.221 42.5519H470.172L463.547 42.4545C463.498 45.3774 463.352 51.0772 463.352 53.4643C463.352 54.7796 463.547 55.9975 465.301 55.9975C468.029 55.9975 468.565 55.2667 468.565 52.2951C468.565 52.1489 468.565 51.9541 468.565 51.8079ZM436.12 59.2615C436.12 60.6742 434.951 61.4049 433.83 61.4049C432.613 61.4049 431.443 60.6742 431.443 59.2615C431.443 50.3952 431.492 34.3676 431.687 24.0886C431.784 19.4606 434.366 19.4606 438.751 19.4606C439.676 19.4606 440.602 19.4606 441.43 19.5093C444.207 19.6067 445.62 21.1169 445.62 23.2117C445.62 24.1373 445.327 25.5988 442.745 31.1524C442.502 31.6396 442.404 32.078 442.404 32.5164C442.404 33.1497 442.648 33.7831 443.184 34.4651C444.889 36.6086 445.815 38.7034 445.815 42.016C445.815 46.2543 443.135 49.4208 439.676 49.4208C438.848 49.4208 436.315 49.226 436.315 47.0825C436.315 46.0107 437.046 44.9877 438.069 44.9877C438.264 44.9877 438.41 45.0364 438.605 45.0851C438.848 45.1338 439.043 45.1826 439.287 45.1826C440.358 45.1826 441.576 44.257 441.576 41.675C441.576 39.4341 440.894 37.6803 439.676 35.9753C438.751 34.6599 438.361 33.5882 438.361 32.5164C438.361 31.6396 438.605 30.7627 439.043 29.7396C440.115 27.4013 440.992 24.4783 440.992 24.1373C440.992 23.5527 440.748 23.163 438.994 23.163C437.192 23.163 436.218 23.2117 436.218 24.8681C436.169 29.3986 436.12 35.1471 436.12 41.1879C436.12 56.3872 436.12 58.5307 436.12 59.2615ZM443.525 61.1127C442.015 61.1127 441.138 60.0409 441.138 58.8717C441.138 57.9461 441.722 56.9718 442.989 56.5334C449.517 54.195 451.417 50.3464 452.196 45.2313C452.391 43.916 453.365 43.3314 454.34 43.3314C455.558 43.3314 456.824 44.2082 456.824 45.5723C456.824 45.6697 456.824 45.8159 456.776 45.962C454.486 59.1153 444.158 61.1127 443.525 61.1127Z" fill="#E9AA43"/>
<path d="M417.51 41.4314H417.461L407.62 41.2853C409.91 44.9877 413.807 47.5696 417.607 48.8849C418.825 49.3234 419.361 50.249 419.361 51.1746C419.361 52.3438 418.484 53.4642 417.022 53.4642C414.294 53.4642 407.718 48.9824 404.795 43.7211C400.508 52.5874 391.934 53.7078 391.788 53.7078C390.472 53.7078 389.693 52.5874 389.693 51.5156C389.693 50.6387 390.18 49.7618 391.447 49.4208C397.195 47.9593 400.021 44.6954 401.336 41.2366L392.129 41.4314H392.08C390.765 41.4314 390.131 40.5058 390.131 39.5315C390.131 38.5572 390.813 37.5342 392.129 37.5342H402.213L402.359 36.0727C402.408 35.0984 402.408 33.9292 402.408 32.76H397.585C395.198 36.3163 394.272 36.5598 393.444 36.5598C392.275 36.5598 391.154 35.7317 391.154 34.7086C391.154 34.3189 391.301 33.9292 391.69 33.5395C393.882 31.2498 395.003 29.3986 396.221 26.3782C396.562 25.5988 397.195 25.3065 397.926 25.3065C399.095 25.3065 400.313 26.1346 400.313 27.2551C400.313 27.3525 400.313 27.5474 399.728 28.9114H414.392C415.658 28.9114 416.292 29.8858 416.292 30.8114C416.292 31.7857 415.658 32.76 414.392 32.76H406.938C406.938 33.3446 406.89 36.365 406.695 37.5342H417.461C418.776 37.5342 419.41 38.5085 419.41 39.4828C419.41 40.4571 418.776 41.4314 417.51 41.4314ZM420.871 54.877H420.92C422.381 54.877 423.063 55.9975 423.063 57.0692C423.063 58.1897 422.381 59.3101 420.968 59.3101C415.22 59.4563 409.472 59.505 403.772 59.505C399.144 59.505 394.564 59.4563 390.18 59.3589C385.942 59.2614 383.896 57.0692 383.75 53.4642C383.603 49.8106 383.555 45.6697 383.555 41.3827C383.555 36.1701 383.652 30.8601 383.75 26.0859C383.798 22.9681 386.137 20.8246 389.79 20.7759C394.029 20.6785 399.192 20.6785 404.405 20.6785C409.666 20.6785 414.976 20.6785 419.507 20.7759C420.968 20.7759 421.65 21.8476 421.65 22.9194C421.65 23.9424 420.968 25.0142 419.507 25.0142C413.223 24.9655 405.623 24.9167 399.339 24.9167C396.513 24.9167 393.931 24.9167 391.836 24.9655C389.06 25.0142 388.329 25.7936 388.28 28.2781C388.183 32.2241 388.134 36.2675 388.134 40.2135C388.134 44.1595 388.183 48.0568 388.28 51.7105C388.378 54.4873 389.352 54.9257 392.324 55.0231C395.246 55.0719 398.51 55.1206 401.969 55.1206C407.913 55.1206 414.441 55.0231 420.871 54.877Z" fill="#E9AA43"/>
<path d="M361.877 50.8822H356.079V59.2613C356.079 60.5766 354.91 61.2587 353.741 61.2587C352.572 61.2587 351.403 60.5766 351.403 59.2613V50.8822H345.654C344.144 50.8822 343.462 49.9079 343.462 48.8848C343.462 47.8131 344.241 46.7413 345.654 46.7413H351.403V45.5234L351.549 36.0238C347.798 42.3082 342.439 48.3977 336.252 53.1231C335.667 53.5616 335.034 53.7564 334.498 53.7564C333.134 53.7564 332.062 52.6847 332.062 51.4668C332.062 50.736 332.452 49.9566 333.329 49.372C339.662 45.085 345.265 39.1904 349.357 32.0291L335.862 32.224H335.814C334.303 32.224 333.621 31.201 333.621 30.1779C333.621 29.0575 334.401 27.8883 335.862 27.8883H351.403V19.7527C351.403 18.34 352.523 17.658 353.692 17.658C354.862 17.658 356.079 18.3887 356.079 19.7527V27.8883H371.571C372.984 27.8883 373.666 28.96 373.666 30.0805C373.666 31.1523 372.984 32.224 371.571 32.224H371.522L358.028 32.0291C362.315 39.0442 368.356 44.1594 374.202 48.0079C375.03 48.5925 375.371 49.2746 375.371 50.0053C375.371 51.3693 374.104 52.6847 372.545 52.6847C372.01 52.6847 371.425 52.4898 370.84 52.1001C365.676 48.349 359.928 42.162 355.933 35.7315L356.079 45.4747V46.7413H361.877C363.289 46.7413 363.971 47.7644 363.971 48.7874C363.971 49.8591 363.289 50.8822 361.877 50.8822Z" fill="#E9AA43"/>
<path d="M300.981 33.4419C300.299 33.4419 299.666 33.1009 299.276 32.224C298.497 30.5189 296.987 29.1062 296.548 28.5216C296.305 28.1806 296.207 27.8883 296.207 27.5473C296.207 26.5242 297.425 25.7448 298.594 25.7448C300.348 25.7448 303.417 29.4959 303.417 31.0061C303.417 32.3701 302.15 33.4419 300.981 33.4419ZM315.888 37.4853H307.217V48.5438C310.383 48.5438 311.017 48.1054 311.114 46.8387C311.163 45.6208 311.163 42.844 311.163 41.7236C311.163 40.4082 312.235 39.7262 313.258 39.7262C314.329 39.7262 315.401 40.4082 315.45 41.7236C315.45 42.3082 315.499 43.185 315.499 44.1107C315.499 48.7874 315.401 51.9539 310.481 52.1488C308.63 52.1975 306.681 52.2462 304.781 52.2462C297.571 52.2462 294.941 52.1975 294.794 47.7156C294.794 47.7156 294.794 47.7156 294.794 41.6261C294.843 40.4082 295.915 39.7749 296.938 39.7749C297.961 39.7749 298.984 40.3595 298.984 41.5774V41.6261C298.984 42.3569 298.984 43.8671 298.984 45.1824C298.984 48.4464 298.984 48.4951 302.881 48.4951V37.4853H294.21C292.797 37.4853 292.115 36.5597 292.115 35.5854C292.115 34.6598 292.797 33.7342 294.161 33.7342H294.21L305.073 33.8316H306.048C306.096 33.6855 306.145 33.5393 306.243 33.3932C307.022 31.8343 308.289 29.301 309.263 26.6704C309.604 25.7935 310.383 25.4038 311.163 25.4038C312.429 25.4038 313.794 26.3294 313.794 27.5473C313.794 28.1318 313.599 28.5216 310.578 33.7829L315.888 33.7342H315.937C317.252 33.7342 317.934 34.6598 317.934 35.5854C317.934 36.511 317.252 37.4853 315.888 37.4853ZM324.316 47.2772L324.414 54.1461C324.414 54.1948 324.414 54.1948 324.414 54.2436C324.414 57.1178 322.416 60.7228 315.84 60.7228C313.014 60.7228 310.432 60.5766 310.432 57.946C310.432 56.7768 311.163 55.6563 312.43 55.6563C312.576 55.6563 312.722 55.6563 312.868 55.705C313.94 55.8999 315.011 56.046 315.986 56.046C317.983 56.046 319.493 55.4127 319.493 53.2205C319.493 31.9804 319.396 28.5703 319.347 27.7908C319.25 25.014 318.275 24.4782 315.888 24.4294C312.332 24.3807 308.678 24.332 305.073 24.332C301.468 24.332 297.912 24.3807 294.599 24.4294C291.823 24.4782 291.043 25.3063 290.995 27.7908C290.848 33.5393 290.8 39.9211 290.8 46.5464C290.8 50.736 290.8 54.9743 290.848 59.2613V59.31C290.848 60.7228 289.679 61.4048 288.51 61.4048C287.292 61.4048 286.074 60.674 286.074 59.31V59.2613C286.172 48.3489 286.172 36.511 286.367 25.6473C286.415 22.5295 288.802 20.386 292.456 20.3373C296.743 20.2399 301.371 20.1912 306.048 20.1912C310.14 20.1912 314.232 20.2399 318.178 20.3373C321.15 20.386 324.024 22.5295 324.121 26.0371C324.316 33.4419 324.219 41.7723 324.316 47.2772Z" fill="#E9AA43"/>
<path d="M269.073 25.8423H243.351C241.841 25.8423 241.11 24.7219 241.11 23.6014C241.11 22.5296 241.841 21.4092 243.351 21.4092H269.073C270.583 21.4092 271.363 22.5296 271.363 23.6501C271.363 24.7706 270.632 25.8423 269.073 25.8423ZM274.675 37.0957H274.627L262.74 36.9495C262.691 41.334 262.545 49.8105 262.545 52.6848C262.545 54.4872 262.545 55.7539 266.735 55.7539C269.755 55.7539 272.24 55.1693 272.24 50.931C272.24 49.3234 273.36 48.6413 274.529 48.6413C274.821 48.6413 277.16 48.6901 277.16 51.2233C277.16 60.0409 269.804 60.1383 266.004 60.1383C261.376 60.1383 257.868 59.3101 257.868 54.3411C257.868 52.7822 257.917 42.016 258.015 36.9495C254.702 36.9495 250.61 36.9495 238.138 37.0957H238.09C236.628 37.0957 235.849 35.9752 235.849 34.8548C235.849 33.7343 236.628 32.6138 238.138 32.6138H274.627C276.088 32.6138 276.819 33.7343 276.819 34.9035C276.819 35.9752 276.137 37.0957 274.675 37.0957ZM238.382 60.7716C238.041 60.869 237.7 60.9177 237.408 60.9177C235.849 60.9177 235.069 59.6998 235.069 58.4819C235.069 57.5076 235.556 56.582 236.58 56.3384C246.469 53.8539 248.612 46.3517 249.1 39.8238C249.197 38.3136 250.22 37.729 251.34 37.729C252.607 37.729 254.02 38.6059 254.02 39.9699C254.02 40.0186 254.02 40.1161 254.02 40.1648C253.289 47.9106 250.171 57.6051 238.382 60.7716Z" fill="#E9AA43"/>
<path d="M412.829 112.972H412.213C410.357 112.972 408.835 114.019 407.647 116.113C406.482 118.207 405.899 120.711 405.899 123.626V125.439C405.899 128.721 406.579 131.495 407.939 133.762C409.299 136.029 410.929 137.162 412.829 137.162H413.444C415.106 137.162 416.553 136.32 417.783 134.636C419.035 132.931 419.661 130.664 419.661 127.836L419.726 127.156L419.759 125.796V125.439L419.726 125.083V124.403C419.683 123.928 419.661 123.583 419.661 123.367C419.661 120.496 418.981 118.045 417.621 116.016C416.261 113.987 414.664 112.972 412.829 112.972ZM412.861 108.665H414.48C416.401 108.665 418.377 109.118 420.406 110.025C424.271 111.752 426.926 114.559 428.372 118.445C429.106 120.452 429.473 122.503 429.473 124.597V125.18C429.473 127.425 429.02 129.628 428.113 131.786C427.207 133.945 425.987 135.737 424.454 137.162C421.259 140.055 417.589 141.501 413.444 141.501C413.12 141.501 412.796 141.49 412.472 141.469C410.4 141.469 408.36 141.059 406.352 140.238C404.366 139.396 402.736 138.285 401.462 136.903C398.72 133.88 397.35 130.092 397.35 125.536V124.986L397.382 124.435C397.404 122.428 397.781 120.442 398.515 118.477C399.94 114.721 402.552 111.946 406.352 110.155C408.489 109.162 410.659 108.665 412.861 108.665Z" fill="#E9AA43"/>
<path d="M378.278 98.7237C378.278 97.4716 378.763 96.4137 379.735 95.5502C380.728 94.6867 381.797 94.2549 382.941 94.2549H383.977C384.301 94.3196 384.571 94.352 384.787 94.352C385.823 94.352 386.74 94.8162 387.539 95.7445C388.338 96.6728 388.737 97.5579 388.737 98.3999V99.2418C388.694 99.4577 388.673 99.6196 388.673 99.7276C388.673 100.634 388.165 101.519 387.151 102.383C386.136 103.247 385.013 103.678 383.783 103.678H382.779C381.57 103.678 380.523 103.3 379.638 102.545C378.774 101.768 378.342 100.883 378.342 99.8895L378.278 99.5657V98.7237ZM384.43 140.854H381.354C378.483 140.854 376.756 140.778 376.173 140.627C375.611 140.454 375.331 139.99 375.331 139.235C375.331 138.457 375.871 137.529 376.95 136.45C378.029 135.37 378.709 134.291 378.99 133.211C379.271 132.11 379.411 129.271 379.411 124.695C379.411 120.096 379.292 117.387 379.055 116.567C378.817 115.746 378.073 115.045 376.82 114.462C375.59 113.857 374.975 113.145 374.975 112.324C374.975 111.483 375.547 110.867 376.691 110.479C379.282 109.615 382.142 109.183 385.272 109.183H385.758C387.01 109.183 387.733 109.712 387.928 110.77C388.036 111.375 388.09 115.001 388.09 121.651C388.09 128.278 388.23 132.164 388.511 133.309C388.813 134.431 389.568 135.629 390.777 136.903C391.986 138.177 392.591 138.976 392.591 139.299V139.688C392.591 140.465 389.871 140.854 384.43 140.854Z" fill="#E9AA43"/>
<path d="M350.881 136.709H351.432C353.396 136.709 354.853 135.964 355.803 134.474C356.451 133.459 356.775 131.182 356.775 127.641V123.14C356.775 119.405 356.386 116.858 355.609 115.498C354.853 114.116 353.374 113.425 351.172 113.425H350.881C348.895 113.425 347.222 114.451 345.862 116.502C344.502 118.531 343.822 121.035 343.822 124.014V126.119C343.822 128.883 344.35 131.15 345.408 132.92C346.92 135.446 348.744 136.709 350.881 136.709ZM355.577 109.734C356.591 109.734 357.099 108.568 357.099 106.236C357.099 102.437 356.278 99.8137 354.637 98.3673C353.407 97.3095 352.792 96.6078 352.792 96.2624C352.792 95.5716 353.806 94.9023 355.836 94.2547C357.865 93.607 359.711 93.2832 361.373 93.2832C363.035 93.2832 364.115 93.4667 364.611 93.8337C365.129 94.2007 365.475 94.9995 365.648 96.23C365.842 97.4606 365.939 103.451 365.939 114.202C365.939 124.932 366.058 130.998 366.295 132.402C366.533 133.783 366.975 134.874 367.623 135.672C367.666 135.737 368.076 136.05 368.853 136.611C369.631 137.173 370.019 137.637 370.019 138.004V138.554C370.019 138.878 369.803 139.224 369.372 139.591C368.076 140.67 365.281 141.21 360.984 141.21C359.862 141.21 358.998 140.821 358.394 140.044C357.789 139.267 357.466 138.878 357.422 138.878C357.012 138.9 356.311 139.17 355.317 139.688C353.007 140.94 350.87 141.566 348.906 141.566C348.862 141.566 348.83 141.566 348.809 141.566H347.967C346.391 141.566 344.825 141.199 343.271 140.465C340.054 138.954 337.788 136.363 336.471 132.693C335.801 130.793 335.467 128.883 335.467 126.961V126.087C335.467 126.022 335.467 125.968 335.467 125.925C335.467 123.442 335.909 121.111 336.794 118.93C339.32 112.648 343.94 109.507 350.654 109.507C352.317 109.507 353.299 109.518 353.601 109.539L354.281 109.604C355.015 109.69 355.447 109.734 355.577 109.734Z" fill="#E9AA43"/>
<path d="M330.447 138.263C330.447 140.012 327.975 140.886 323.031 140.886C321.563 140.886 320.559 140.681 320.019 140.271C319.48 139.861 319.037 139.321 318.692 138.652C318.346 137.961 318.055 137.615 317.817 137.615C317.602 137.615 316.943 137.972 315.842 138.684C314.741 139.375 313.564 139.99 312.312 140.53C311.082 141.069 309.463 141.339 307.455 141.339C305.447 141.339 303.742 140.908 302.338 140.044C300.957 139.18 299.867 137.928 299.068 136.288C298.291 134.647 297.902 130.944 297.902 125.18C297.902 119.416 297.772 116.264 297.513 115.725C297.276 115.185 296.585 114.656 295.441 114.138C294.297 113.62 293.725 112.983 293.725 112.227C293.725 111.191 294.372 110.5 295.668 110.155C297.675 109.615 300.169 109.345 303.148 109.345C304.573 109.345 305.501 109.96 305.933 111.191C306.365 112.421 306.581 115.854 306.581 121.489C306.581 127.123 306.764 130.675 307.131 132.143C307.628 134.172 308.718 135.381 310.402 135.77C310.834 135.877 311.276 135.931 311.729 135.931C312.507 135.931 313.305 135.78 314.126 135.478C315.464 135.003 316.468 134.301 317.137 133.373C317.828 132.423 318.174 130.005 318.174 126.119C318.174 122.233 317.979 119.492 317.591 117.894C317.202 116.297 316.652 114.958 315.939 113.879C315.227 112.799 314.871 112.033 314.871 111.58C314.871 110.068 317.656 109.313 323.225 109.313H324.132C325.255 109.313 326.01 109.539 326.399 109.993C326.809 110.425 327.014 111.547 327.014 113.361L326.885 118.056L326.852 119.028V123.82C326.852 128.57 326.982 131.506 327.241 132.628C327.5 133.751 328.094 134.928 329.022 136.158C329.972 137.389 330.447 138.09 330.447 138.263Z" fill="#E9AA43"/>
<path d="M269.697 113.846C268.747 113.199 268.272 112.573 268.272 111.968C268.272 111.342 268.845 110.727 269.989 110.122C271.133 109.518 271.845 109.032 272.126 108.665C272.407 108.298 272.849 107.284 273.454 105.621C274.08 103.959 274.738 102.685 275.429 101.8C276.12 100.893 277.027 100.44 278.149 100.44C279.272 100.44 280.081 100.893 280.578 101.8C280.794 102.21 281.074 103.182 281.42 104.714C281.787 106.247 282.219 107.23 282.715 107.661C283.212 108.093 284.162 108.579 285.565 109.119C286.968 109.637 287.691 109.907 287.735 109.928C288.469 110.511 288.836 111.202 288.836 112.001C288.836 112.691 287.81 113.307 285.759 113.846C283.73 114.386 282.424 115.207 281.841 116.308C281.28 117.409 280.999 120.161 280.999 124.565C280.999 128.969 281.334 131.83 282.003 133.147C282.694 134.463 283.816 135.122 285.371 135.122L286.536 135.025C287.054 134.982 287.616 134.96 288.22 134.96C289.537 134.96 290.196 135.457 290.196 136.45C290.196 137.723 289.397 138.738 287.799 139.494C285.511 140.573 283.093 141.113 280.546 141.113C279.358 141.113 278.171 140.789 276.983 140.141C275.796 139.494 274.889 138.706 274.263 137.777C273.033 135.964 272.417 133.373 272.417 130.005L272.385 129.325C272.363 128.85 272.353 128.322 272.353 127.739V125.828C272.353 122.093 272.05 118.909 271.446 116.275C271.23 115.304 270.647 114.494 269.697 113.846Z" fill="#E9AA43"/>
<path d="M247.709 95.1616C253.474 95.1616 257.349 95.669 259.335 96.6836C260.825 97.4392 261.569 99.3822 261.569 102.513C261.569 105.643 261.04 107.208 259.983 107.208C259.119 107.208 257.705 106.301 255.74 104.488C253.776 102.653 252.286 101.455 251.272 100.893C250.257 100.332 248.929 100.051 247.289 100.051C245.669 100.051 244.277 100.58 243.111 101.638C241.967 102.696 241.395 103.959 241.395 105.427C241.395 107.392 242.474 109.151 244.633 110.705C245.713 111.483 248.206 112.745 252.114 114.494C256.021 116.243 258.806 117.959 260.468 119.643C262.821 122.039 263.998 124.738 263.998 127.739C263.998 133.999 260.9 138.22 254.704 140.4C252.869 141.048 250.991 141.372 249.07 141.372H247.904C245.529 141.372 242.895 141.102 240.002 140.562C237.11 140.023 235.285 139.494 234.53 138.976C233.126 138.004 232.425 135.748 232.425 132.208V131.107C232.425 128.818 233.04 127.674 234.271 127.674C235.134 127.674 236.505 128.775 238.383 130.977C240.261 133.179 241.837 134.647 243.111 135.381C244.406 136.115 246.047 136.482 248.033 136.482C250.041 136.482 251.725 135.91 253.085 134.766C254.445 133.622 255.125 132.38 255.125 131.042C255.125 129.034 254.521 127.383 253.312 126.087C252.103 124.792 249.696 123.313 246.09 121.651C242.485 119.988 239.992 118.65 238.61 117.635C234.81 114.829 232.911 111.461 232.911 107.532C232.911 106.711 232.997 105.859 233.17 104.974C233.882 101.26 236.268 98.4539 240.326 96.5541C242.312 95.6258 244.385 95.1616 246.544 95.1616H247.709Z" fill="#E9AA43"/>
</svg>
