<svg width="295" height="101" viewBox="0 0 295 101" fill="none" xmlns="http://www.w3.org/2000/svg">
<path d="M217 0H0V10H217V0Z" fill="white"/>
<path d="M17.001 55.5394L17.0657 56.6728C17.0657 57.342 17.5407 57.6766 18.4906 57.6766H19.9802L20.2393 57.6443L21.9879 57.5795C22.1606 57.5579 22.3333 57.5471 22.5061 57.5471C24.1684 57.5471 25.6904 56.9318 27.072 55.7013C28.4537 54.4492 29.1445 52.8732 29.1445 50.9734L29.2093 50.4553V49.419C29.2093 47.4545 28.5077 45.8461 27.1044 44.594C25.7227 43.3418 23.6395 42.7158 20.8545 42.7158H19.5916C18.1668 42.7158 17.3356 43.0612 17.0981 43.752C17.0118 44.0111 16.9686 45.9109 16.9686 49.4514V55.2803L17.001 55.5394ZM16.9686 75.3577L17.0334 76.6854C17.0334 77.9591 18.1883 78.5959 20.4983 78.5959L20.7898 78.6283L21.0488 78.6607L22.2146 78.6931H23.6718C25.8091 78.6931 27.6225 78.013 29.1121 76.653C30.6233 75.2929 31.3789 73.4471 31.3789 71.1155V69.885C31.3789 67.7045 30.6018 65.8371 29.0474 64.2827C27.493 62.7284 25.1183 61.9512 21.9232 61.9512H19.9154C18.2747 61.9512 17.368 62.1455 17.1953 62.5341C17.0442 62.9011 16.9686 65.3622 16.9686 69.9173L16.9362 70.4679V71.2774L16.9038 71.5365V72.087L16.8714 73.188V73.4471L16.9038 73.7061V74.2566L16.9362 74.5157C16.9362 74.71 16.9362 74.9043 16.9362 75.0986L16.9686 75.3577ZM18.7496 38.1498H22.247C27.601 38.1498 31.638 39.1213 34.3582 41.0643C37.0783 43.0072 38.4384 45.6194 38.4384 48.9009C38.4384 50.7791 38.0066 52.5062 37.1431 54.0821C36.2795 55.6581 35.2325 56.8563 34.002 57.6766C32.793 58.4754 32.1885 58.9288 32.1885 59.0367C32.1885 59.1447 33.0197 59.6196 34.682 60.4616C36.3659 61.3035 37.7044 62.3074 38.6975 63.4732C40.2734 65.3514 41.0614 67.3915 41.0614 69.5935V70.4355C41.0614 76.8689 37.2079 80.9383 29.5007 82.6438C27.4498 83.0971 24.557 83.3238 20.8221 83.3238H19.1059L18.2315 83.2914C17.6486 83.2699 17.0765 83.2591 16.5152 83.2591L14.7989 83.1943C14.2376 83.1727 13.6655 83.1619 13.0827 83.1619L8.90527 83.0648C6.55212 83.0648 5.15966 83.0216 4.72789 82.9352C3.60529 82.7193 3.04398 82.1904 3.04398 81.3485C3.04398 80.744 3.75641 79.8481 5.18125 78.6607C6.13115 77.8619 6.75721 76.6314 7.05945 74.9691C7.38328 73.3067 7.5452 68.3846 7.5452 60.2025C7.5452 51.9989 7.39408 47.2926 7.09184 46.0836C6.81118 44.8746 6.06638 43.7952 4.85742 42.8453C3.67005 41.8954 3.07637 41.0535 3.07637 40.3195C3.07637 39.5639 3.49734 39.0565 4.3393 38.7975C5.20284 38.5384 7.49122 38.4089 11.2045 38.4089L14.5723 38.2793C16.8175 38.193 18.2099 38.1498 18.7496 38.1498ZM61.1064 54.7298C63.6106 53.0027 65.7479 52.1392 67.5182 52.1392C69.2884 52.1392 70.4866 52.517 71.1127 53.2726C71.7603 54.0282 72.0841 54.9349 72.0841 55.9927C72.0841 57.0506 71.7927 58.0005 71.2098 58.8424C70.6485 59.6628 70.0008 60.073 69.2668 60.073C68.5544 60.073 67.5613 59.7923 66.2876 59.231C65.0139 58.6697 64.0316 58.3891 63.3408 58.3891C62.6499 58.3891 61.8728 58.7561 61.0092 59.4901C60.1457 60.2241 59.5412 61.2711 59.1958 62.6312C58.872 63.9913 58.71 66.1286 58.71 69.043C58.71 71.9359 58.9151 73.8141 59.3253 74.6776C59.7355 75.5196 60.5774 76.6314 61.8512 78.013C63.1249 79.3947 63.7618 80.5281 63.7618 81.4132C63.7618 82.4495 61.2575 82.9676 56.2489 82.9676H53.464L52.784 82.9352C52.3306 82.9136 51.8665 82.9029 51.3915 82.9029L50.7115 82.8705C50.2581 82.8489 49.7832 82.8381 49.2866 82.8381C47.0198 82.8381 45.8864 82.3523 45.8864 81.3809C45.8864 80.4094 46.4477 79.4271 47.5704 78.434C48.7145 77.441 49.4054 76.545 49.6429 75.7463C49.9019 74.9475 50.0314 72.2057 50.0314 67.521C50.0314 62.8363 49.8803 60.0298 49.5781 59.1015C49.2974 58.1732 48.5958 57.3852 47.4732 56.7375C46.3722 56.0683 45.8217 55.3775 45.8217 54.665C45.8217 53.672 46.5665 52.9703 48.0561 52.5602C50.3013 51.9557 52.3306 51.6534 54.1441 51.6534C55.9575 51.6534 57.1773 51.8585 57.8033 52.2687C58.0624 52.4414 58.3538 52.9919 58.6777 53.9202C59.0231 54.8485 59.4225 55.3127 59.8758 55.3127C60.0701 55.3127 60.4803 55.1184 61.1064 54.7298ZM79.7589 40.9995C79.7589 39.7474 80.2446 38.6895 81.2161 37.826C82.2092 36.9624 83.2778 36.5307 84.422 36.5307H85.4582C85.7821 36.5954 86.0519 36.6278 86.2678 36.6278C87.3041 36.6278 88.2216 37.092 89.0204 38.0203C89.8191 38.9486 90.2185 39.8337 90.2185 40.6757V41.5176C90.1753 41.7335 90.1538 41.8954 90.1538 42.0034C90.1538 42.9101 89.6464 43.7952 88.6318 44.6588C87.6171 45.5223 86.4945 45.9541 85.2639 45.9541H84.2601C83.0511 45.9541 82.0041 45.5763 81.1189 44.8207C80.2554 44.0435 79.8236 43.1583 79.8236 42.1653L79.7589 41.8414V40.9995ZM85.9116 83.1295H82.8352C79.964 83.1295 78.2369 83.054 77.654 82.9029C77.0927 82.7301 76.812 82.266 76.812 81.5104C76.812 80.7332 77.3517 79.8049 78.4312 78.7255C79.5106 77.646 80.1906 76.5666 80.4713 75.4872C80.7519 74.3862 80.8923 71.5473 80.8923 66.9705C80.8923 62.3721 80.7735 59.6628 80.5361 58.8424C80.2986 58.0221 79.5538 57.3204 78.3016 56.7375C77.0711 56.1331 76.4558 55.4206 76.4558 54.6003C76.4558 53.7583 77.0279 53.143 78.1721 52.7545C80.7627 51.8909 83.6232 51.4591 86.7536 51.4591H87.2393C88.4914 51.4591 89.2147 51.9881 89.4089 53.0459C89.5169 53.6504 89.5709 57.2773 89.5709 63.9265C89.5709 70.5542 89.7112 74.4401 89.9918 75.5843C90.2941 76.7069 91.0497 77.9051 92.2586 79.1788C93.4676 80.4526 94.0721 81.2513 94.0721 81.5752V81.9638C94.0721 82.7409 91.3519 83.1295 85.9116 83.1295ZM114.214 78.9845H114.765C116.729 78.9845 118.186 78.2397 119.136 76.7501C119.784 75.7355 120.108 73.4579 120.108 69.9173V65.4161C120.108 61.6813 119.719 59.1339 118.942 57.7738C118.186 56.3921 116.708 55.7013 114.506 55.7013H114.214C112.228 55.7013 110.555 56.7267 109.195 58.7777C107.835 60.807 107.155 63.3113 107.155 66.2905V68.3954C107.155 71.1587 107.684 73.4255 108.741 75.1957C110.253 77.7216 112.077 78.9845 114.214 78.9845ZM118.91 52.0096C119.924 52.0096 120.432 50.8439 120.432 48.5123C120.432 44.7127 119.611 42.0897 117.971 40.6433C116.74 39.5854 116.125 38.8838 116.125 38.5384C116.125 37.8476 117.139 37.1783 119.169 36.5307C121.198 35.883 123.044 35.5592 124.706 35.5592C126.369 35.5592 127.448 35.7427 127.944 36.1097C128.463 36.4767 128.808 37.2755 128.981 38.506C129.175 39.7366 129.272 45.7274 129.272 56.4785C129.272 67.208 129.391 73.2744 129.628 74.6776C129.866 76.0593 130.308 77.1495 130.956 77.9483C130.999 78.013 131.409 78.3261 132.187 78.8874C132.964 79.4487 133.352 79.9128 133.352 80.2798V80.8304C133.352 81.1542 133.137 81.4996 132.705 81.8666C131.409 82.946 128.614 83.4857 124.318 83.4857C123.195 83.4857 122.331 83.0971 121.727 82.32C121.123 81.5428 120.799 81.1542 120.756 81.1542C120.345 81.1758 119.644 81.4456 118.651 81.9638C116.341 83.2159 114.203 83.842 112.239 83.842C112.196 83.842 112.163 83.842 112.142 83.842H111.3C109.724 83.842 108.159 83.4749 106.604 82.7409C103.388 81.2297 101.121 78.6391 99.8038 74.9691C99.1346 73.0693 98.8 71.1587 98.8 69.2373V68.363C98.8 68.2982 98.8 68.2442 98.8 68.2011C98.8 65.7184 99.2425 63.3868 100.128 61.2064C102.654 54.9241 107.273 51.783 113.988 51.783C115.65 51.783 116.632 51.7938 116.934 51.8154L117.614 51.8801C118.348 51.9665 118.78 52.0096 118.91 52.0096ZM156.441 60.8825L156.377 59.7815C156.377 58.1192 155.923 56.716 155.017 55.5718C154.131 54.406 153.084 53.8231 151.875 53.8231H151.487C150.386 53.8231 149.414 54.4599 148.572 55.7337C147.73 56.9858 147.309 58.4754 147.309 60.2025V61.854C147.309 63.9265 147.795 65.6644 148.767 67.0677C149.76 68.4709 150.839 69.1725 152.005 69.1725H152.232C153.333 69.1725 154.293 68.6436 155.114 67.5858C155.956 66.5064 156.377 65.265 156.377 63.8618L156.409 63.6675L156.441 63.4408L156.474 62.7607V61.1092L156.441 60.8825ZM158.222 83.2914C157.186 83.1187 156.279 83.0324 155.502 83.0324L155.243 83L155.017 82.9676L153.559 82.8705C153.387 82.8489 153.235 82.8381 153.106 82.8381L152.037 82.7409H151.325L151.098 82.7733L150.418 82.8057L149.544 82.9029C148.508 82.9029 147.568 83.3562 146.727 84.2629C145.885 85.1912 145.464 86.2923 145.464 87.566V88.246C145.464 89.6277 145.993 90.6855 147.05 91.4195C148.13 92.1751 149.49 92.5529 151.131 92.5529H152.555C155.319 92.5529 157.737 91.7973 159.809 90.2861C161.104 89.3362 161.752 87.9977 161.752 86.2707L161.72 86.044C161.72 85.3747 161.428 84.7487 160.845 84.1658C160.263 83.5829 159.388 83.2914 158.222 83.2914ZM169.233 52.3659C169.643 52.776 169.848 53.4237 169.848 54.3088C169.848 55.194 169.416 55.8308 168.553 56.2194C167.085 56.8671 166.307 57.2773 166.221 57.45C165.962 57.9465 165.832 58.7453 165.832 59.8463L165.865 60.6882C165.93 61.5734 165.962 62.221 165.962 62.6312C165.962 64.0345 165.606 65.4053 164.893 66.7438C162.95 70.4571 159.367 72.6267 154.142 73.2528C151.832 73.5334 150.634 73.6845 150.548 73.7061C149.188 74.1595 148.508 74.8395 148.508 75.7463C148.508 76.545 148.939 77.0955 149.803 77.3978C150.666 77.6784 153.052 77.9483 156.959 78.2073C160.889 78.4664 163.533 78.9629 164.893 79.697C166.275 80.431 167.268 81.2837 167.873 82.2552C168.499 83.2051 168.812 84.5436 168.812 86.2707C168.812 87.9977 168.315 89.5737 167.322 90.9986C165.293 93.913 162.098 95.9747 157.737 97.1837C155.578 97.7882 153.333 98.0904 151.001 98.0904H149.997C146.025 98.0904 142.981 97.3456 140.865 95.856C138.771 94.388 137.724 92.5853 137.724 90.448C137.724 89.0232 138.188 87.6631 139.117 86.3678C139.289 86.1303 139.743 85.6014 140.477 84.7811C141.232 83.9607 141.61 83.3346 141.61 82.9029C141.61 82.8597 141.221 82.2984 140.444 81.2189C139.667 80.1179 139.278 79.0169 139.278 77.9159C139.278 76.8149 139.861 75.5088 141.027 73.9976C142.193 72.4864 142.776 71.6336 142.776 71.4393C142.776 71.245 142.204 70.5218 141.06 69.2697C139.937 67.9744 139.117 66.3984 138.598 64.5418C138.426 63.9157 138.339 63.2681 138.339 62.5988C138.339 62.5341 138.339 62.4585 138.339 62.3721C138.339 61.1416 138.588 59.9003 139.084 58.6481C139.905 56.5756 141.232 54.9781 143.067 53.8555C145.593 52.2795 148.529 51.4915 151.875 51.4915H152.847C153.02 51.4915 154.293 51.5779 156.668 51.7506L158.417 51.9449C159.388 52.0528 159.95 52.1068 160.101 52.1068L167.128 51.7182C168.142 51.7182 168.844 51.9341 169.233 52.3659ZM189.86 55.3775H188.921C187.561 55.3775 186.255 56.0899 185.003 57.5147C183.772 58.918 183.157 60.6019 183.157 62.5664V63.0846C183.157 63.8833 183.6 64.2827 184.485 64.2827L184.809 64.3475H187.108L187.27 64.3151L192.678 63.9913C193.002 63.9265 193.217 63.8941 193.325 63.8941C194.426 63.8941 194.977 63.322 194.977 62.1779V61.1092C194.977 59.6628 194.459 58.3459 193.423 57.1585C192.386 55.9711 191.199 55.3775 189.86 55.3775ZM183.546 70.7917C183.546 72.9505 184.56 74.8179 186.59 76.3939C188.101 77.5813 190.022 78.175 192.354 78.175C193.412 78.175 194.977 77.8727 197.049 77.2682C199.144 76.6638 200.352 76.3615 200.676 76.3615C201.648 76.3615 202.134 76.8904 202.134 77.9483C202.134 79.2004 200.838 80.4741 198.248 81.7695C195.679 83.0432 193.012 83.68 190.249 83.68H188.824C188.781 83.68 188.727 83.68 188.662 83.68C186.914 83.68 185.133 83.3238 183.319 82.6114C179.735 81.2297 177.188 78.8118 175.677 75.3577C174.641 72.9829 174.122 70.7269 174.122 68.5896V67.1C174.122 64.9196 174.5 62.8147 175.256 60.7854C176.681 56.9642 179.196 54.2117 182.801 52.5278C184.96 51.5347 187.227 51.0382 189.601 51.0382H190.346C193.865 51.0382 196.834 52.1284 199.251 54.3088C200.525 55.4746 201.497 56.8779 202.166 58.5186C202.857 60.1593 203.202 61.8324 203.202 63.5379C203.202 65.2218 202.371 66.3336 200.709 66.8734C198.377 67.629 194.059 68.0068 187.756 68.0068C186.072 68.0068 184.949 68.2226 184.388 68.6544C183.826 69.0646 183.546 69.777 183.546 70.7917Z" fill="white"/>
<path d="M232.433 56.1223C231.483 55.4746 231.008 54.8485 231.008 54.2441C231.008 53.618 231.58 53.0027 232.724 52.3982C233.868 51.7938 234.581 51.308 234.861 50.941C235.142 50.574 235.585 49.5593 236.189 47.897C236.815 46.2347 237.474 44.961 238.164 44.0759C238.855 43.1691 239.762 42.7158 240.884 42.7158C242.007 42.7158 242.817 43.1691 243.313 44.0759C243.529 44.486 243.81 45.4575 244.155 46.9903C244.522 48.5231 244.954 49.5054 245.45 49.9371C245.947 50.3689 246.897 50.8547 248.3 51.3944C249.703 51.9125 250.427 52.1824 250.47 52.2039C251.204 52.7868 251.571 53.4777 251.571 54.2764C251.571 54.9673 250.545 55.5826 248.494 56.1223C246.465 56.662 245.159 57.4823 244.576 58.5834C244.015 59.6844 243.734 62.4369 243.734 66.841C243.734 71.245 244.069 74.1055 244.738 75.4224C245.429 76.7393 246.551 77.3978 248.106 77.3978L249.272 77.3006C249.79 77.2574 250.351 77.2359 250.956 77.2359C252.272 77.2359 252.931 77.7324 252.931 78.7255C252.931 79.9992 252.132 81.0139 250.535 81.7695C248.246 82.8489 245.828 83.3886 243.281 83.3886C242.093 83.3886 240.906 83.0648 239.719 82.4171C238.531 81.7695 237.625 80.9815 236.999 80.0532C235.768 78.2397 235.153 75.6491 235.153 72.2813L235.12 71.6013C235.099 71.1263 235.088 70.5974 235.088 70.0145V68.1039C235.088 64.3691 234.786 61.1848 234.181 58.551C233.965 57.5795 233.382 56.7699 232.433 56.1223ZM273.235 55.2479H272.62C270.763 55.2479 269.241 56.295 268.054 58.3891C266.888 60.4832 266.305 62.9874 266.305 65.9019V67.7153C266.305 70.9968 266.985 73.7709 268.345 76.0377C269.705 78.3045 271.335 79.4379 273.235 79.4379H273.85C275.513 79.4379 276.959 78.5959 278.189 76.912C279.442 75.2065 280.068 72.9397 280.068 70.1116L280.132 69.4316L280.165 68.0715V67.7153L280.132 67.3591V66.6791C280.089 66.2041 280.068 65.8587 280.068 65.6428C280.068 62.7715 279.388 60.3212 278.028 58.2919C276.668 56.2626 275.07 55.2479 273.235 55.2479ZM273.267 50.941H274.886C276.808 50.941 278.783 51.3944 280.813 52.3011C284.677 54.0282 287.332 56.8347 288.779 60.7206C289.513 62.7284 289.88 64.7793 289.88 66.8734V67.4563C289.88 69.7015 289.426 71.9035 288.52 74.0623C287.613 76.2212 286.393 78.013 284.86 79.4379C281.665 82.3308 277.995 83.7772 273.85 83.7772C273.526 83.7772 273.203 83.7664 272.879 83.7448C270.806 83.7448 268.766 83.3346 266.758 82.5143C264.772 81.6723 263.142 80.5605 261.869 79.1788C259.127 76.1564 257.756 72.3676 257.756 67.8125V67.262L257.788 66.7114C257.81 64.7037 258.188 62.7176 258.922 60.753C260.347 56.9966 262.959 54.2225 266.758 52.4306C268.896 51.4376 271.065 50.941 273.267 50.941Z" fill="#868F8F"/>
<path d="M230 5H243" stroke="#868F8F" stroke-width="10"/>
<path d="M256 5H269" stroke="#868F8F" stroke-width="10"/>
<path d="M282 5H295" stroke="#868F8F" stroke-width="10"/>
</svg>
