<svg width="493" height="172" viewBox="0 0 493 172" fill="none" xmlns="http://www.w3.org/2000/svg">
<path d="M217 81H0V91H217V81Z" fill="white"/>
<path d="M493 81H217V91H493V81Z" fill="#E9AA43"/>
<path d="M17.001 126.539L17.0657 127.673C17.0657 128.342 17.5407 128.677 18.4906 128.677H19.9802L20.2393 128.644L21.9879 128.579C22.1606 128.558 22.3333 128.547 22.5061 128.547C24.1684 128.547 25.6904 127.932 27.072 126.701C28.4537 125.449 29.1445 123.873 29.1445 121.973L29.2093 121.455V120.419C29.2093 118.454 28.5077 116.846 27.1044 115.594C25.7227 114.342 23.6395 113.716 20.8545 113.716H19.5916C18.1668 113.716 17.3356 114.061 17.0981 114.752C17.0118 115.011 16.9686 116.911 16.9686 120.451V126.28L17.001 126.539ZM16.9686 146.358L17.0334 147.685C17.0334 148.959 18.1883 149.596 20.4983 149.596L20.7898 149.628L21.0488 149.661L22.2146 149.693H23.6718C25.8091 149.693 27.6225 149.013 29.1121 147.653C30.6233 146.293 31.3789 144.447 31.3789 142.116V140.885C31.3789 138.705 30.6018 136.837 29.0474 135.283C27.493 133.728 25.1183 132.951 21.9232 132.951H19.9154C18.2747 132.951 17.368 133.145 17.1953 133.534C17.0442 133.901 16.9686 136.362 16.9686 140.917L16.9362 141.468V142.277L16.9038 142.536V143.087L16.8714 144.188V144.447L16.9038 144.706V145.257L16.9362 145.516C16.9362 145.71 16.9362 145.904 16.9362 146.099L16.9686 146.358ZM18.7496 109.15H22.247C27.601 109.15 31.638 110.121 34.3582 112.064C37.0783 114.007 38.4384 116.619 38.4384 119.901C38.4384 121.779 38.0066 123.506 37.1431 125.082C36.2795 126.658 35.2325 127.856 34.002 128.677C32.793 129.475 32.1885 129.929 32.1885 130.037C32.1885 130.145 33.0197 130.62 34.682 131.462C36.3659 132.304 37.7044 133.307 38.6975 134.473C40.2734 136.351 41.0614 138.391 41.0614 140.594V141.435C41.0614 147.869 37.2079 151.938 29.5007 153.644C27.4498 154.097 24.557 154.324 20.8221 154.324H19.1059L18.2315 154.291C17.6486 154.27 17.0765 154.259 16.5152 154.259L14.7989 154.194C14.2376 154.173 13.6655 154.162 13.0827 154.162L8.90527 154.065C6.55212 154.065 5.15966 154.022 4.72789 153.935C3.60529 153.719 3.04398 153.19 3.04398 152.348C3.04398 151.744 3.75641 150.848 5.18125 149.661C6.13115 148.862 6.75721 147.631 7.05945 145.969C7.38328 144.307 7.5452 139.385 7.5452 131.203C7.5452 122.999 7.39408 118.293 7.09184 117.084C6.81118 115.875 6.06638 114.795 4.85742 113.845C3.67005 112.895 3.07637 112.053 3.07637 111.319C3.07637 110.564 3.49734 110.057 4.3393 109.797C5.20284 109.538 7.49122 109.409 11.2045 109.409L14.5723 109.279C16.8175 109.193 18.2099 109.15 18.7496 109.15ZM61.1064 125.73C63.6106 124.003 65.7479 123.139 67.5182 123.139C69.2884 123.139 70.4866 123.517 71.1127 124.273C71.7603 125.028 72.0841 125.935 72.0841 126.993C72.0841 128.051 71.7927 129 71.2098 129.842C70.6485 130.663 70.0008 131.073 69.2668 131.073C68.5544 131.073 67.5613 130.792 66.2876 130.231C65.0139 129.67 64.0316 129.389 63.3408 129.389C62.6499 129.389 61.8728 129.756 61.0092 130.49C60.1457 131.224 59.5412 132.271 59.1958 133.631C58.872 134.991 58.71 137.129 58.71 140.043C58.71 142.936 58.9151 144.814 59.3253 145.678C59.7355 146.52 60.5774 147.631 61.8512 149.013C63.1249 150.395 63.7618 151.528 63.7618 152.413C63.7618 153.449 61.2575 153.968 56.2489 153.968H53.464L52.784 153.935C52.3306 153.914 51.8665 153.903 51.3915 153.903L50.7115 153.87C50.2581 153.849 49.7832 153.838 49.2866 153.838C47.0198 153.838 45.8864 153.352 45.8864 152.381C45.8864 151.409 46.4477 150.427 47.5704 149.434C48.7145 148.441 49.4054 147.545 49.6429 146.746C49.9019 145.947 50.0314 143.206 50.0314 138.521C50.0314 133.836 49.8803 131.03 49.5781 130.101C49.2974 129.173 48.5958 128.385 47.4732 127.738C46.3722 127.068 45.8217 126.377 45.8217 125.665C45.8217 124.672 46.5665 123.97 48.0561 123.56C50.3013 122.956 52.3306 122.653 54.1441 122.653C55.9575 122.653 57.1773 122.859 57.8033 123.269C58.0624 123.441 58.3538 123.992 58.6777 124.92C59.0231 125.849 59.4225 126.313 59.8758 126.313C60.0701 126.313 60.4803 126.118 61.1064 125.73ZM79.7589 111.999C79.7589 110.747 80.2446 109.69 81.2161 108.826C82.2092 107.962 83.2778 107.531 84.422 107.531H85.4582C85.7821 107.595 86.0519 107.628 86.2678 107.628C87.3041 107.628 88.2216 108.092 89.0204 109.02C89.8191 109.949 90.2185 110.834 90.2185 111.676V112.518C90.1753 112.734 90.1538 112.895 90.1538 113.003C90.1538 113.91 89.6464 114.795 88.6318 115.659C87.6171 116.522 86.4945 116.954 85.2639 116.954H84.2601C83.0511 116.954 82.0041 116.576 81.1189 115.821C80.2554 115.043 79.8236 114.158 79.8236 113.165L79.7589 112.841V111.999ZM85.9116 154.13H82.8352C79.964 154.13 78.2369 154.054 77.654 153.903C77.0927 153.73 76.812 153.266 76.812 152.51C76.812 151.733 77.3517 150.805 78.4312 149.725C79.5106 148.646 80.1906 147.567 80.4713 146.487C80.7519 145.386 80.8923 142.547 80.8923 137.971C80.8923 133.372 80.7735 130.663 80.5361 129.842C80.2986 129.022 79.5538 128.32 78.3016 127.738C77.0711 127.133 76.4558 126.421 76.4558 125.6C76.4558 124.758 77.0279 124.143 78.1721 123.754C80.7627 122.891 83.6232 122.459 86.7536 122.459H87.2393C88.4914 122.459 89.2147 122.988 89.4089 124.046C89.5169 124.65 89.5709 128.277 89.5709 134.927C89.5709 141.554 89.7112 145.44 89.9918 146.584C90.2941 147.707 91.0497 148.905 92.2586 150.179C93.4676 151.453 94.0721 152.251 94.0721 152.575V152.964C94.0721 153.741 91.3519 154.13 85.9116 154.13ZM114.214 149.985H114.765C116.729 149.985 118.186 149.24 119.136 147.75C119.784 146.735 120.108 144.458 120.108 140.917V136.416C120.108 132.681 119.719 130.134 118.942 128.774C118.186 127.392 116.708 126.701 114.506 126.701H114.214C112.228 126.701 110.555 127.727 109.195 129.778C107.835 131.807 107.155 134.311 107.155 137.29V139.395C107.155 142.159 107.684 144.425 108.741 146.196C110.253 148.722 112.077 149.985 114.214 149.985ZM118.91 123.01C119.924 123.01 120.432 121.844 120.432 119.512C120.432 115.713 119.611 113.09 117.971 111.643C116.74 110.585 116.125 109.884 116.125 109.538C116.125 108.848 117.139 108.178 119.169 107.531C121.198 106.883 123.044 106.559 124.706 106.559C126.369 106.559 127.448 106.743 127.944 107.11C128.463 107.477 128.808 108.275 128.981 109.506C129.175 110.737 129.272 116.727 129.272 127.478C129.272 138.208 129.391 144.274 129.628 145.678C129.866 147.059 130.308 148.15 130.956 148.948C130.999 149.013 131.409 149.326 132.187 149.887C132.964 150.449 133.352 150.913 133.352 151.28V151.83C133.352 152.154 133.137 152.5 132.705 152.867C131.409 153.946 128.614 154.486 124.318 154.486C123.195 154.486 122.331 154.097 121.727 153.32C121.123 152.543 120.799 152.154 120.756 152.154C120.345 152.176 119.644 152.446 118.651 152.964C116.341 154.216 114.203 154.842 112.239 154.842C112.196 154.842 112.163 154.842 112.142 154.842H111.3C109.724 154.842 108.159 154.475 106.604 153.741C103.388 152.23 101.121 149.639 99.8038 145.969C99.1346 144.069 98.8 142.159 98.8 140.237V139.363C98.8 139.298 98.8 139.244 98.8 139.201C98.8 136.718 99.2425 134.387 100.128 132.206C102.654 125.924 107.273 122.783 113.988 122.783C115.65 122.783 116.632 122.794 116.934 122.815L117.614 122.88C118.348 122.966 118.78 123.01 118.91 123.01ZM156.441 131.883L156.377 130.782C156.377 129.119 155.923 127.716 155.017 126.572C154.131 125.406 153.084 124.823 151.875 124.823H151.487C150.386 124.823 149.414 125.46 148.572 126.734C147.73 127.986 147.309 129.475 147.309 131.203V132.854C147.309 134.927 147.795 136.664 148.767 138.068C149.76 139.471 150.839 140.173 152.005 140.173H152.232C153.333 140.173 154.293 139.644 155.114 138.586C155.956 137.506 156.377 136.265 156.377 134.862L156.409 134.667L156.441 134.441L156.474 133.761V132.109L156.441 131.883ZM158.222 154.291C157.186 154.119 156.279 154.032 155.502 154.032L155.243 154L155.017 153.968L153.559 153.87C153.387 153.849 153.235 153.838 153.106 153.838L152.037 153.741H151.325L151.098 153.773L150.418 153.806L149.544 153.903C148.508 153.903 147.568 154.356 146.727 155.263C145.885 156.191 145.464 157.292 145.464 158.566V159.246C145.464 160.628 145.993 161.686 147.05 162.42C148.13 163.175 149.49 163.553 151.131 163.553H152.555C155.319 163.553 157.737 162.797 159.809 161.286C161.104 160.336 161.752 158.998 161.752 157.271L161.72 157.044C161.72 156.375 161.428 155.749 160.845 155.166C160.263 154.583 159.388 154.291 158.222 154.291ZM169.233 123.366C169.643 123.776 169.848 124.424 169.848 125.309C169.848 126.194 169.416 126.831 168.553 127.219C167.085 127.867 166.307 128.277 166.221 128.45C165.962 128.946 165.832 129.745 165.832 130.846L165.865 131.688C165.93 132.573 165.962 133.221 165.962 133.631C165.962 135.034 165.606 136.405 164.893 137.744C162.95 141.457 159.367 143.627 154.142 144.253C151.832 144.533 150.634 144.685 150.548 144.706C149.188 145.159 148.508 145.84 148.508 146.746C148.508 147.545 148.939 148.096 149.803 148.398C150.666 148.678 153.052 148.948 156.959 149.207C160.889 149.466 163.533 149.963 164.893 150.697C166.275 151.431 167.268 152.284 167.873 153.255C168.499 154.205 168.812 155.544 168.812 157.271C168.812 158.998 168.315 160.574 167.322 161.999C165.293 164.913 162.098 166.975 157.737 168.184C155.578 168.788 153.333 169.09 151.001 169.09H149.997C146.025 169.09 142.981 168.346 140.865 166.856C138.771 165.388 137.724 163.585 137.724 161.448C137.724 160.023 138.188 158.663 139.117 157.368C139.289 157.13 139.743 156.601 140.477 155.781C141.232 154.961 141.61 154.335 141.61 153.903C141.61 153.86 141.221 153.298 140.444 152.219C139.667 151.118 139.278 150.017 139.278 148.916C139.278 147.815 139.861 146.509 141.027 144.998C142.193 143.486 142.776 142.634 142.776 142.439C142.776 142.245 142.204 141.522 141.06 140.27C139.937 138.974 139.117 137.398 138.598 135.542C138.426 134.916 138.339 134.268 138.339 133.599C138.339 133.534 138.339 133.459 138.339 133.372C138.339 132.142 138.588 130.9 139.084 129.648C139.905 127.576 141.232 125.978 143.067 124.855C145.593 123.28 148.529 122.492 151.875 122.492H152.847C153.02 122.492 154.293 122.578 156.668 122.751L158.417 122.945C159.388 123.053 159.95 123.107 160.101 123.107L167.128 122.718C168.142 122.718 168.844 122.934 169.233 123.366ZM189.86 126.377H188.921C187.561 126.377 186.255 127.09 185.003 128.515C183.772 129.918 183.157 131.602 183.157 133.566V134.085C183.157 134.883 183.6 135.283 184.485 135.283L184.809 135.348H187.108L187.27 135.315L192.678 134.991C193.002 134.927 193.217 134.894 193.325 134.894C194.426 134.894 194.977 134.322 194.977 133.178V132.109C194.977 130.663 194.459 129.346 193.423 128.159C192.386 126.971 191.199 126.377 189.86 126.377ZM183.546 141.792C183.546 143.951 184.56 145.818 186.59 147.394C188.101 148.581 190.022 149.175 192.354 149.175C193.412 149.175 194.977 148.873 197.049 148.268C199.144 147.664 200.352 147.362 200.676 147.362C201.648 147.362 202.134 147.89 202.134 148.948C202.134 150.2 200.838 151.474 198.248 152.769C195.679 154.043 193.012 154.68 190.249 154.68H188.824C188.781 154.68 188.727 154.68 188.662 154.68C186.914 154.68 185.133 154.324 183.319 153.611C179.735 152.23 177.188 149.812 175.677 146.358C174.641 143.983 174.122 141.727 174.122 139.59V138.1C174.122 135.92 174.5 133.815 175.256 131.785C176.681 127.964 179.196 125.212 182.801 123.528C184.96 122.535 187.227 122.038 189.601 122.038H190.346C193.865 122.038 196.834 123.128 199.251 125.309C200.525 126.475 201.497 127.878 202.166 129.519C202.857 131.159 203.202 132.832 203.202 134.538C203.202 136.222 202.371 137.334 200.709 137.873C198.377 138.629 194.059 139.007 187.756 139.007C186.072 139.007 184.949 139.223 184.388 139.654C183.826 140.065 183.546 140.777 183.546 141.792Z" fill="white"/>
<path d="M247.709 108.437C253.474 108.437 257.349 108.945 259.335 109.959C260.824 110.715 261.569 112.658 261.569 115.788C261.569 118.919 261.04 120.484 259.983 120.484C259.119 120.484 257.705 119.577 255.74 117.764C253.776 115.929 252.286 114.73 251.272 114.169C250.257 113.608 248.929 113.327 247.288 113.327C245.669 113.327 244.277 113.856 243.111 114.914C241.967 115.972 241.395 117.235 241.395 118.703C241.395 120.667 242.474 122.427 244.633 123.981C245.712 124.758 248.206 126.021 252.113 127.77C256.021 129.519 258.806 131.235 260.468 132.919C262.821 135.315 263.998 138.014 263.998 141.014C263.998 147.275 260.9 151.496 254.704 153.676C252.869 154.324 250.991 154.648 249.069 154.648H247.904C245.529 154.648 242.895 154.378 240.002 153.838C237.109 153.298 235.285 152.769 234.53 152.251C233.126 151.28 232.425 149.024 232.425 145.483V144.382C232.425 142.094 233.04 140.95 234.271 140.95C235.134 140.95 236.505 142.051 238.383 144.253C240.261 146.455 241.837 147.923 243.111 148.657C244.406 149.391 246.047 149.758 248.033 149.758C250.041 149.758 251.725 149.186 253.085 148.042C254.445 146.897 255.125 145.656 255.125 144.318C255.125 142.31 254.521 140.658 253.312 139.363C252.103 138.068 249.696 136.589 246.09 134.927C242.485 133.264 239.992 131.926 238.61 130.911C234.81 128.105 232.91 124.737 232.91 120.808C232.91 119.987 232.997 119.135 233.17 118.249C233.882 114.536 236.267 111.73 240.326 109.83C242.312 108.902 244.385 108.437 246.544 108.437H247.709ZM269.697 127.122C268.747 126.475 268.273 125.849 268.273 125.244C268.273 124.618 268.845 124.003 269.989 123.398C271.133 122.794 271.845 122.308 272.126 121.941C272.407 121.574 272.849 120.559 273.454 118.897C274.08 117.235 274.738 115.961 275.429 115.076C276.12 114.169 277.027 113.716 278.149 113.716C279.272 113.716 280.081 114.169 280.578 115.076C280.794 115.486 281.075 116.458 281.42 117.99C281.787 119.523 282.219 120.505 282.715 120.937C283.212 121.369 284.162 121.855 285.565 122.394C286.968 122.913 287.691 123.182 287.735 123.204C288.469 123.787 288.836 124.478 288.836 125.276C288.836 125.967 287.81 126.583 285.759 127.122C283.73 127.662 282.424 128.482 281.841 129.583C281.28 130.684 280.999 133.437 280.999 137.841C280.999 142.245 281.334 145.106 282.003 146.422C282.694 147.739 283.816 148.398 285.371 148.398L286.536 148.301C287.055 148.257 287.616 148.236 288.22 148.236C289.537 148.236 290.196 148.732 290.196 149.725C290.196 150.999 289.397 152.014 287.799 152.769C285.511 153.849 283.093 154.389 280.546 154.389C279.358 154.389 278.171 154.065 276.983 153.417C275.796 152.769 274.889 151.981 274.263 151.053C273.033 149.24 272.418 146.649 272.418 143.281L272.385 142.601C272.364 142.126 272.353 141.597 272.353 141.014V139.104C272.353 135.369 272.05 132.185 271.446 129.551C271.23 128.579 270.647 127.77 269.697 127.122ZM330.448 151.539C330.448 153.288 327.976 154.162 323.032 154.162C321.564 154.162 320.56 153.957 320.02 153.547C319.481 153.136 319.038 152.597 318.693 151.928C318.347 151.237 318.056 150.891 317.818 150.891C317.602 150.891 316.944 151.247 315.843 151.96C314.742 152.651 313.565 153.266 312.313 153.806C311.083 154.345 309.463 154.615 307.456 154.615C305.448 154.615 303.742 154.184 302.339 153.32C300.958 152.456 299.867 151.204 299.069 149.564C298.291 147.923 297.903 144.22 297.903 138.456C297.903 132.692 297.773 129.54 297.514 129C297.277 128.461 296.586 127.932 295.442 127.414C294.297 126.896 293.725 126.259 293.725 125.503C293.725 124.467 294.373 123.776 295.668 123.431C297.676 122.891 300.17 122.621 303.149 122.621C304.574 122.621 305.502 123.236 305.934 124.467C306.365 125.697 306.581 129.13 306.581 134.765C306.581 140.399 306.765 143.951 307.132 145.419C307.628 147.448 308.719 148.657 310.403 149.045C310.834 149.153 311.277 149.207 311.73 149.207C312.507 149.207 313.306 149.056 314.127 148.754C315.465 148.279 316.469 147.577 317.138 146.649C317.829 145.699 318.174 143.281 318.174 139.395C318.174 135.509 317.98 132.768 317.592 131.17C317.203 129.573 316.652 128.234 315.94 127.155C315.228 126.075 314.871 125.309 314.871 124.855C314.871 123.344 317.656 122.589 323.226 122.589H324.133C325.255 122.589 326.011 122.815 326.4 123.269C326.81 123.7 327.015 124.823 327.015 126.637L326.885 131.332L326.853 132.304V137.096C326.853 141.846 326.983 144.782 327.242 145.904C327.501 147.027 328.094 148.203 329.023 149.434C329.973 150.665 330.448 151.366 330.448 151.539ZM350.881 149.985H351.432C353.396 149.985 354.853 149.24 355.803 147.75C356.451 146.735 356.775 144.458 356.775 140.917V136.416C356.775 132.681 356.386 130.134 355.609 128.774C354.853 127.392 353.375 126.701 351.173 126.701H350.881C348.895 126.701 347.222 127.727 345.862 129.778C344.502 131.807 343.822 134.311 343.822 137.29V139.395C343.822 142.159 344.351 144.425 345.408 146.196C346.92 148.722 348.744 149.985 350.881 149.985ZM355.577 123.01C356.591 123.01 357.099 121.844 357.099 119.512C357.099 115.713 356.278 113.09 354.637 111.643C353.407 110.585 352.792 109.884 352.792 109.538C352.792 108.848 353.806 108.178 355.836 107.531C357.865 106.883 359.711 106.559 361.373 106.559C363.035 106.559 364.115 106.743 364.611 107.11C365.129 107.477 365.475 108.275 365.648 109.506C365.842 110.737 365.939 116.727 365.939 127.478C365.939 138.208 366.058 144.274 366.295 145.678C366.533 147.059 366.975 148.15 367.623 148.948C367.666 149.013 368.076 149.326 368.854 149.887C369.631 150.449 370.019 150.913 370.019 151.28V151.83C370.019 152.154 369.803 152.5 369.372 152.867C368.076 153.946 365.281 154.486 360.984 154.486C359.862 154.486 358.998 154.097 358.394 153.32C357.789 152.543 357.466 152.154 357.422 152.154C357.012 152.176 356.311 152.446 355.318 152.964C353.008 154.216 350.87 154.842 348.906 154.842C348.863 154.842 348.83 154.842 348.809 154.842H347.967C346.391 154.842 344.825 154.475 343.271 153.741C340.054 152.23 337.788 149.639 336.471 145.969C335.801 144.069 335.467 142.159 335.467 140.237V139.363C335.467 139.298 335.467 139.244 335.467 139.201C335.467 136.718 335.909 134.387 336.795 132.206C339.32 125.924 343.94 122.783 350.654 122.783C352.317 122.783 353.299 122.794 353.601 122.815L354.281 122.88C355.015 122.966 355.447 123.01 355.577 123.01ZM378.277 111.999C378.277 110.747 378.763 109.69 379.734 108.826C380.727 107.962 381.796 107.531 382.94 107.531H383.976C384.3 107.595 384.57 107.628 384.786 107.628C385.822 107.628 386.74 108.092 387.538 109.02C388.337 109.949 388.737 110.834 388.737 111.676V112.518C388.693 112.734 388.672 112.895 388.672 113.003C388.672 113.91 388.164 114.795 387.15 115.659C386.135 116.522 385.013 116.954 383.782 116.954H382.778C381.569 116.954 380.522 116.576 379.637 115.821C378.773 115.043 378.342 114.158 378.342 113.165L378.277 112.841V111.999ZM384.43 154.13H381.353C378.482 154.13 376.755 154.054 376.172 153.903C375.611 153.73 375.33 153.266 375.33 152.51C375.33 151.733 375.87 150.805 376.949 149.725C378.029 148.646 378.709 147.567 378.989 146.487C379.27 145.386 379.41 142.547 379.41 137.971C379.41 133.372 379.292 130.663 379.054 129.842C378.817 129.022 378.072 128.32 376.82 127.738C375.589 127.133 374.974 126.421 374.974 125.6C374.974 124.758 375.546 124.143 376.69 123.754C379.281 122.891 382.141 122.459 385.272 122.459H385.757C387.009 122.459 387.733 122.988 387.927 124.046C388.035 124.65 388.089 128.277 388.089 134.927C388.089 141.554 388.229 145.44 388.51 146.584C388.812 147.707 389.568 148.905 390.777 150.179C391.986 151.453 392.59 152.251 392.59 152.575V152.964C392.59 153.741 389.87 154.13 384.43 154.13ZM412.829 126.248H412.214C410.357 126.248 408.835 127.295 407.648 129.389C406.482 131.483 405.899 133.987 405.899 136.902V138.715C405.899 141.997 406.579 144.771 407.94 147.038C409.3 149.304 410.93 150.438 412.829 150.438H413.445C415.107 150.438 416.553 149.596 417.784 147.912C419.036 146.207 419.662 143.94 419.662 141.112L419.727 140.432L419.759 139.072V138.715L419.727 138.359V137.679C419.684 137.204 419.662 136.859 419.662 136.643C419.662 133.772 418.982 131.321 417.622 129.292C416.262 127.263 414.664 126.248 412.829 126.248ZM412.862 121.941H414.481C416.402 121.941 418.378 122.394 420.407 123.301C424.271 125.028 426.927 127.835 428.373 131.721C429.107 133.728 429.474 135.779 429.474 137.873V138.456C429.474 140.701 429.021 142.903 428.114 145.062C427.207 147.221 425.988 149.013 424.455 150.438C421.26 153.331 417.59 154.777 413.445 154.777C413.121 154.777 412.797 154.766 412.473 154.745C410.401 154.745 408.361 154.335 406.353 153.514C404.367 152.672 402.737 151.56 401.463 150.179C398.721 147.156 397.35 143.368 397.35 138.812V138.262L397.383 137.711C397.404 135.704 397.782 133.718 398.516 131.753C399.941 127.997 402.553 125.222 406.353 123.431C408.49 122.438 410.66 121.941 412.862 121.941Z" fill="#E9AA43"/>
<path fill-rule="evenodd" clip-rule="evenodd" d="M322 28L356 28V38L322 38V28Z" fill="#E9AA43"/>
<path d="M493 33L373 33" stroke="#E9AA43" stroke-width="10"/>
<path d="M307 33L187 33" stroke="#E9AA43" stroke-width="10"/>
<path fill-rule="evenodd" clip-rule="evenodd" d="M344 16L344 50L334 50L334 16L344 16Z" fill="#E9AA43"/>
<path d="M458 83V16" stroke="#E9AA43" stroke-width="10"/>
<path d="M340 82L340 60" stroke="#E9AA43" stroke-width="10"/>
<path d="M222 83V16" stroke="#E9AA43" stroke-width="10"/>
<rect x="312" y="5" width="56" height="56" stroke="#E9AA43" stroke-width="10"/>
</svg>
