<svg width="493" height="165" viewBox="0 0 493 165" fill="none" xmlns="http://www.w3.org/2000/svg">
<path d="M473 32H135V42H473V32Z" fill="#32A5C9"/>
<path d="M217 64H0V74H217V64Z" fill="white"/>
<path d="M493 64H217V74H493V64Z" fill="#32A5C9"/>
<path d="M451 0H166V10H451V0Z" fill="#32A5C9"/>
<path d="M317 3V67H327V3H317Z" fill="#32A5C9"/>
<path d="M217 3V67H227V3H217Z" fill="#32A5C9"/>
<path d="M418 7V69H428V7H418Z" fill="#32A5C9"/>
<path d="M17.001 119.539L17.0657 120.673C17.0657 121.342 17.5407 121.677 18.4906 121.677H19.9802L20.2393 121.644L21.9879 121.579C22.1606 121.558 22.3333 121.547 22.5061 121.547C24.1684 121.547 25.6904 120.932 27.072 119.701C28.4537 118.449 29.1445 116.873 29.1445 114.973L29.2093 114.455V113.419C29.2093 111.454 28.5077 109.846 27.1044 108.594C25.7227 107.342 23.6395 106.716 20.8545 106.716H19.5916C18.1668 106.716 17.3356 107.061 17.0981 107.752C17.0118 108.011 16.9686 109.911 16.9686 113.451V119.28L17.001 119.539ZM16.9686 139.358L17.0334 140.685C17.0334 141.959 18.1883 142.596 20.4983 142.596L20.7898 142.628L21.0488 142.661L22.2146 142.693H23.6718C25.8091 142.693 27.6225 142.013 29.1121 140.653C30.6233 139.293 31.3789 137.447 31.3789 135.116V133.885C31.3789 131.705 30.6018 129.837 29.0474 128.283C27.493 126.728 25.1183 125.951 21.9232 125.951H19.9154C18.2747 125.951 17.368 126.145 17.1953 126.534C17.0442 126.901 16.9686 129.362 16.9686 133.917L16.9362 134.468V135.277L16.9038 135.536V136.087L16.8714 137.188V137.447L16.9038 137.706V138.257L16.9362 138.516C16.9362 138.71 16.9362 138.904 16.9362 139.099L16.9686 139.358ZM18.7496 102.15H22.247C27.601 102.15 31.638 103.121 34.3582 105.064C37.0783 107.007 38.4384 109.619 38.4384 112.901C38.4384 114.779 38.0066 116.506 37.1431 118.082C36.2795 119.658 35.2325 120.856 34.002 121.677C32.793 122.475 32.1885 122.929 32.1885 123.037C32.1885 123.145 33.0197 123.62 34.682 124.462C36.3659 125.304 37.7044 126.307 38.6975 127.473C40.2734 129.351 41.0614 131.391 41.0614 133.594V134.435C41.0614 140.869 37.2079 144.938 29.5007 146.644C27.4498 147.097 24.557 147.324 20.8221 147.324H19.1059L18.2315 147.291C17.6486 147.27 17.0765 147.259 16.5152 147.259L14.7989 147.194C14.2376 147.173 13.6655 147.162 13.0827 147.162L8.90527 147.065C6.55212 147.065 5.15966 147.022 4.72789 146.935C3.60529 146.719 3.04398 146.19 3.04398 145.348C3.04398 144.744 3.75641 143.848 5.18125 142.661C6.13115 141.862 6.75721 140.631 7.05945 138.969C7.38328 137.307 7.5452 132.385 7.5452 124.203C7.5452 115.999 7.39408 111.293 7.09184 110.084C6.81118 108.875 6.06638 107.795 4.85742 106.845C3.67005 105.895 3.07637 105.053 3.07637 104.319C3.07637 103.564 3.49734 103.057 4.3393 102.797C5.20284 102.538 7.49122 102.409 11.2045 102.409L14.5723 102.279C16.8175 102.193 18.2099 102.15 18.7496 102.15ZM61.1064 118.73C63.6106 117.003 65.7479 116.139 67.5182 116.139C69.2884 116.139 70.4866 116.517 71.1127 117.273C71.7603 118.028 72.0841 118.935 72.0841 119.993C72.0841 121.051 71.7927 122 71.2098 122.842C70.6485 123.663 70.0008 124.073 69.2668 124.073C68.5544 124.073 67.5613 123.792 66.2876 123.231C65.0139 122.67 64.0316 122.389 63.3408 122.389C62.6499 122.389 61.8728 122.756 61.0092 123.49C60.1457 124.224 59.5412 125.271 59.1958 126.631C58.872 127.991 58.71 130.129 58.71 133.043C58.71 135.936 58.9151 137.814 59.3253 138.678C59.7355 139.52 60.5774 140.631 61.8512 142.013C63.1249 143.395 63.7618 144.528 63.7618 145.413C63.7618 146.449 61.2575 146.968 56.2489 146.968H53.464L52.784 146.935C52.3306 146.914 51.8665 146.903 51.3915 146.903L50.7115 146.87C50.2581 146.849 49.7832 146.838 49.2866 146.838C47.0198 146.838 45.8864 146.352 45.8864 145.381C45.8864 144.409 46.4477 143.427 47.5704 142.434C48.7145 141.441 49.4054 140.545 49.6429 139.746C49.9019 138.947 50.0314 136.206 50.0314 131.521C50.0314 126.836 49.8803 124.03 49.5781 123.101C49.2974 122.173 48.5958 121.385 47.4732 120.738C46.3722 120.068 45.8217 119.377 45.8217 118.665C45.8217 117.672 46.5665 116.97 48.0561 116.56C50.3013 115.956 52.3306 115.653 54.1441 115.653C55.9575 115.653 57.1773 115.859 57.8033 116.269C58.0624 116.441 58.3538 116.992 58.6777 117.92C59.0231 118.849 59.4225 119.313 59.8758 119.313C60.0701 119.313 60.4803 119.118 61.1064 118.73ZM79.7589 104.999C79.7589 103.747 80.2446 102.69 81.2161 101.826C82.2092 100.962 83.2778 100.531 84.422 100.531H85.4582C85.7821 100.595 86.0519 100.628 86.2678 100.628C87.3041 100.628 88.2216 101.092 89.0204 102.02C89.8191 102.949 90.2185 103.834 90.2185 104.676V105.518C90.1753 105.734 90.1538 105.895 90.1538 106.003C90.1538 106.91 89.6464 107.795 88.6318 108.659C87.6171 109.522 86.4945 109.954 85.2639 109.954H84.2601C83.0511 109.954 82.0041 109.576 81.1189 108.821C80.2554 108.043 79.8236 107.158 79.8236 106.165L79.7589 105.841V104.999ZM85.9116 147.13H82.8352C79.964 147.13 78.2369 147.054 77.654 146.903C77.0927 146.73 76.812 146.266 76.812 145.51C76.812 144.733 77.3517 143.805 78.4312 142.725C79.5106 141.646 80.1906 140.567 80.4713 139.487C80.7519 138.386 80.8923 135.547 80.8923 130.971C80.8923 126.372 80.7735 123.663 80.5361 122.842C80.2986 122.022 79.5538 121.32 78.3016 120.738C77.0711 120.133 76.4558 119.421 76.4558 118.6C76.4558 117.758 77.0279 117.143 78.1721 116.754C80.7627 115.891 83.6232 115.459 86.7536 115.459H87.2393C88.4914 115.459 89.2147 115.988 89.4089 117.046C89.5169 117.65 89.5709 121.277 89.5709 127.927C89.5709 134.554 89.7112 138.44 89.9918 139.584C90.2941 140.707 91.0497 141.905 92.2586 143.179C93.4676 144.453 94.0721 145.251 94.0721 145.575V145.964C94.0721 146.741 91.3519 147.13 85.9116 147.13ZM114.214 142.985H114.765C116.729 142.985 118.186 142.24 119.136 140.75C119.784 139.735 120.108 137.458 120.108 133.917V129.416C120.108 125.681 119.719 123.134 118.942 121.774C118.186 120.392 116.708 119.701 114.506 119.701H114.214C112.228 119.701 110.555 120.727 109.195 122.778C107.835 124.807 107.155 127.311 107.155 130.29V132.395C107.155 135.159 107.684 137.425 108.741 139.196C110.253 141.722 112.077 142.985 114.214 142.985ZM118.91 116.01C119.924 116.01 120.432 114.844 120.432 112.512C120.432 108.713 119.611 106.09 117.971 104.643C116.74 103.585 116.125 102.884 116.125 102.538C116.125 101.848 117.139 101.178 119.169 100.531C121.198 99.883 123.044 99.5592 124.706 99.5592C126.369 99.5592 127.448 99.7427 127.944 100.11C128.463 100.477 128.808 101.275 128.981 102.506C129.175 103.737 129.272 109.727 129.272 120.478C129.272 131.208 129.391 137.274 129.628 138.678C129.866 140.059 130.308 141.15 130.956 141.948C130.999 142.013 131.409 142.326 132.187 142.887C132.964 143.449 133.352 143.913 133.352 144.28V144.83C133.352 145.154 133.137 145.5 132.705 145.867C131.409 146.946 128.614 147.486 124.318 147.486C123.195 147.486 122.331 147.097 121.727 146.32C121.123 145.543 120.799 145.154 120.756 145.154C120.345 145.176 119.644 145.446 118.651 145.964C116.341 147.216 114.203 147.842 112.239 147.842C112.196 147.842 112.163 147.842 112.142 147.842H111.3C109.724 147.842 108.159 147.475 106.604 146.741C103.388 145.23 101.121 142.639 99.8038 138.969C99.1346 137.069 98.8 135.159 98.8 133.237V132.363C98.8 132.298 98.8 132.244 98.8 132.201C98.8 129.718 99.2425 127.387 100.128 125.206C102.654 118.924 107.273 115.783 113.988 115.783C115.65 115.783 116.632 115.794 116.934 115.815L117.614 115.88C118.348 115.966 118.78 116.01 118.91 116.01ZM156.441 124.883L156.377 123.782C156.377 122.119 155.923 120.716 155.017 119.572C154.131 118.406 153.084 117.823 151.875 117.823H151.487C150.386 117.823 149.414 118.46 148.572 119.734C147.73 120.986 147.309 122.475 147.309 124.203V125.854C147.309 127.927 147.795 129.664 148.767 131.068C149.76 132.471 150.839 133.173 152.005 133.173H152.232C153.333 133.173 154.293 132.644 155.114 131.586C155.956 130.506 156.377 129.265 156.377 127.862L156.409 127.667L156.441 127.441L156.474 126.761V125.109L156.441 124.883ZM158.222 147.291C157.186 147.119 156.279 147.032 155.502 147.032L155.243 147L155.017 146.968L153.559 146.87C153.387 146.849 153.235 146.838 153.106 146.838L152.037 146.741H151.325L151.098 146.773L150.418 146.806L149.544 146.903C148.508 146.903 147.568 147.356 146.727 148.263C145.885 149.191 145.464 150.292 145.464 151.566V152.246C145.464 153.628 145.993 154.686 147.05 155.42C148.13 156.175 149.49 156.553 151.131 156.553H152.555C155.319 156.553 157.737 155.797 159.809 154.286C161.104 153.336 161.752 151.998 161.752 150.271L161.72 150.044C161.72 149.375 161.428 148.749 160.845 148.166C160.263 147.583 159.388 147.291 158.222 147.291ZM169.233 116.366C169.643 116.776 169.848 117.424 169.848 118.309C169.848 119.194 169.416 119.831 168.553 120.219C167.085 120.867 166.307 121.277 166.221 121.45C165.962 121.946 165.832 122.745 165.832 123.846L165.865 124.688C165.93 125.573 165.962 126.221 165.962 126.631C165.962 128.034 165.606 129.405 164.893 130.744C162.95 134.457 159.367 136.627 154.142 137.253C151.832 137.533 150.634 137.685 150.548 137.706C149.188 138.159 148.508 138.84 148.508 139.746C148.508 140.545 148.939 141.096 149.803 141.398C150.666 141.678 153.052 141.948 156.959 142.207C160.889 142.466 163.533 142.963 164.893 143.697C166.275 144.431 167.268 145.284 167.873 146.255C168.499 147.205 168.812 148.544 168.812 150.271C168.812 151.998 168.315 153.574 167.322 154.999C165.293 157.913 162.098 159.975 157.737 161.184C155.578 161.788 153.333 162.09 151.001 162.09H149.997C146.025 162.09 142.981 161.346 140.865 159.856C138.771 158.388 137.724 156.585 137.724 154.448C137.724 153.023 138.188 151.663 139.117 150.368C139.289 150.13 139.743 149.601 140.477 148.781C141.232 147.961 141.61 147.335 141.61 146.903C141.61 146.86 141.221 146.298 140.444 145.219C139.667 144.118 139.278 143.017 139.278 141.916C139.278 140.815 139.861 139.509 141.027 137.998C142.193 136.486 142.776 135.634 142.776 135.439C142.776 135.245 142.204 134.522 141.06 133.27C139.937 131.974 139.117 130.398 138.598 128.542C138.426 127.916 138.339 127.268 138.339 126.599C138.339 126.534 138.339 126.459 138.339 126.372C138.339 125.142 138.588 123.9 139.084 122.648C139.905 120.576 141.232 118.978 143.067 117.855C145.593 116.28 148.529 115.492 151.875 115.492H152.847C153.02 115.492 154.293 115.578 156.668 115.751L158.417 115.945C159.388 116.053 159.95 116.107 160.101 116.107L167.128 115.718C168.142 115.718 168.844 115.934 169.233 116.366ZM189.86 119.377H188.921C187.561 119.377 186.255 120.09 185.003 121.515C183.772 122.918 183.157 124.602 183.157 126.566V127.085C183.157 127.883 183.6 128.283 184.485 128.283L184.809 128.348H187.108L187.27 128.315L192.678 127.991C193.002 127.927 193.217 127.894 193.325 127.894C194.426 127.894 194.977 127.322 194.977 126.178V125.109C194.977 123.663 194.459 122.346 193.423 121.159C192.386 119.971 191.199 119.377 189.86 119.377ZM183.546 134.792C183.546 136.951 184.56 138.818 186.59 140.394C188.101 141.581 190.022 142.175 192.354 142.175C193.412 142.175 194.977 141.873 197.049 141.268C199.144 140.664 200.352 140.362 200.676 140.362C201.648 140.362 202.134 140.89 202.134 141.948C202.134 143.2 200.838 144.474 198.248 145.769C195.679 147.043 193.012 147.68 190.249 147.68H188.824C188.781 147.68 188.727 147.68 188.662 147.68C186.914 147.68 185.133 147.324 183.319 146.611C179.735 145.23 177.188 142.812 175.677 139.358C174.641 136.983 174.122 134.727 174.122 132.59V131.1C174.122 128.92 174.5 126.815 175.256 124.785C176.681 120.964 179.196 118.212 182.801 116.528C184.96 115.535 187.227 115.038 189.601 115.038H190.346C193.865 115.038 196.834 116.128 199.251 118.309C200.525 119.475 201.497 120.878 202.166 122.519C202.857 124.159 203.202 125.832 203.202 127.538C203.202 129.222 202.371 130.334 200.709 130.873C198.377 131.629 194.059 132.007 187.756 132.007C186.072 132.007 184.949 132.223 184.388 132.654C183.826 133.065 183.546 133.777 183.546 134.792Z" fill="white"/>
<path d="M232.433 120.122C231.483 119.475 231.008 118.849 231.008 118.244C231.008 117.618 231.58 117.003 232.724 116.398C233.868 115.794 234.581 115.308 234.861 114.941C235.142 114.574 235.585 113.559 236.189 111.897C236.815 110.235 237.474 108.961 238.164 108.076C238.855 107.169 239.762 106.716 240.884 106.716C242.007 106.716 242.817 107.169 243.313 108.076C243.529 108.486 243.81 109.458 244.155 110.99C244.522 112.523 244.954 113.505 245.45 113.937C245.947 114.369 246.897 114.855 248.3 115.394C249.703 115.913 250.427 116.182 250.47 116.204C251.204 116.787 251.571 117.478 251.571 118.276C251.571 118.967 250.545 119.583 248.494 120.122C246.465 120.662 245.159 121.482 244.576 122.583C244.015 123.684 243.734 126.437 243.734 130.841C243.734 135.245 244.069 138.106 244.738 139.422C245.429 140.739 246.551 141.398 248.106 141.398L249.272 141.301C249.79 141.257 250.351 141.236 250.956 141.236C252.272 141.236 252.931 141.732 252.931 142.725C252.931 143.999 252.132 145.014 250.535 145.769C248.246 146.849 245.828 147.389 243.281 147.389C242.093 147.389 240.906 147.065 239.719 146.417C238.531 145.769 237.625 144.981 236.999 144.053C235.768 142.24 235.153 139.649 235.153 136.281L235.12 135.601C235.099 135.126 235.088 134.597 235.088 134.014V132.104C235.088 128.369 234.786 125.185 234.181 122.551C233.965 121.579 233.382 120.77 232.433 120.122ZM273.235 119.248H272.62C270.763 119.248 269.241 120.295 268.054 122.389C266.888 124.483 266.305 126.987 266.305 129.902V131.715C266.305 134.997 266.985 137.771 268.345 140.038C269.705 142.304 271.335 143.438 273.235 143.438H273.85C275.513 143.438 276.959 142.596 278.189 140.912C279.442 139.207 280.068 136.94 280.068 134.112L280.132 133.432L280.165 132.072V131.715L280.132 131.359V130.679C280.089 130.204 280.068 129.859 280.068 129.643C280.068 126.772 279.388 124.321 278.028 122.292C276.668 120.263 275.07 119.248 273.235 119.248ZM273.267 114.941H274.886C276.808 114.941 278.783 115.394 280.813 116.301C284.677 118.028 287.332 120.835 288.779 124.721C289.513 126.728 289.88 128.779 289.88 130.873V131.456C289.88 133.701 289.426 135.903 288.52 138.062C287.613 140.221 286.393 142.013 284.86 143.438C281.665 146.331 277.995 147.777 273.85 147.777C273.526 147.777 273.203 147.766 272.879 147.745C270.806 147.745 268.766 147.335 266.758 146.514C264.772 145.672 263.142 144.56 261.869 143.179C259.127 140.156 257.756 136.368 257.756 131.812V131.262L257.788 130.711C257.81 128.704 258.188 126.718 258.922 124.753C260.347 120.997 262.959 118.222 266.758 116.431C268.896 115.438 271.065 114.941 273.267 114.941ZM312.515 103.445V102.636C312.515 101.945 315.959 101.599 322.845 101.599H324.205C326.839 101.599 328.469 101.902 329.095 102.506L329.613 103.283C329.613 104.017 329.149 104.848 328.221 105.777C327.314 106.683 326.667 107.882 326.278 109.371C325.889 110.861 325.695 113.322 325.695 116.754C325.695 120.187 325.943 121.903 326.44 121.903C327.476 121.903 330.509 119.226 335.539 113.872C338.627 110.591 340.17 108.41 340.17 107.331C340.17 106.942 339.987 106.327 339.62 105.485C339.253 104.643 339.069 104.017 339.069 103.607C339.069 102.787 339.598 102.236 340.656 101.956C341.304 101.783 343.009 101.696 345.772 101.696C348.557 101.696 350.511 101.837 351.634 102.117C352.778 102.376 353.35 102.851 353.35 103.542L346.971 109.08C346.042 109.879 343.29 112.717 338.713 117.596C337.094 119.323 336.284 120.781 336.284 121.968C336.284 122.119 338.378 124.926 342.567 130.388C346.755 135.85 349.356 139.066 350.371 140.038C353.76 143.319 355.455 144.992 355.455 145.057C355.455 145.899 354.742 146.449 353.318 146.709C351.914 146.946 349.723 147.065 346.744 147.065H345.319C343.7 147.065 342.275 146.309 341.045 144.798C340.613 144.28 339.738 142.618 338.422 139.811C337.105 137.005 335.496 134.328 333.596 131.78C331.718 129.233 330.024 127.959 328.512 127.959C327.757 127.959 327.12 128.445 326.602 129.416C326.105 130.366 325.857 131.91 325.857 134.047C325.857 136.184 326.656 139.174 328.253 143.017C328.664 143.988 328.869 144.798 328.869 145.446L328.545 145.834C327.509 146.59 324.205 146.968 318.636 146.968C316.693 146.968 315.322 146.87 314.523 146.676C313.271 146.374 312.645 145.823 312.645 145.025C312.645 144.895 313.195 144.161 314.296 142.823C315.419 141.484 316.099 140.189 316.336 138.937C316.574 137.663 316.693 132.827 316.693 124.429C316.693 116.031 316.552 111.26 316.272 110.116C316.013 108.972 315.322 107.59 314.199 105.971C313.077 104.352 312.515 103.51 312.515 103.445ZM386.963 115.718C389.899 115.718 391.367 116.485 391.367 118.017C391.367 118.579 390.871 119.399 389.878 120.478C388.906 121.536 388.108 122.713 387.481 124.008C386.877 125.282 384.643 130.647 380.778 140.102C376.935 149.537 374.485 155.117 373.427 156.844C371.441 160.039 368.764 161.637 365.396 161.637C364.123 161.637 362.903 161.302 361.737 160.633C360.571 159.986 359.988 159.165 359.988 158.172C359.988 157.179 360.355 156.348 361.089 155.679C361.845 155.031 362.838 154.707 364.069 154.707C366.076 154.707 367.717 154.016 368.991 152.635C370.265 151.275 370.901 149.828 370.901 148.295C370.901 146.763 370.524 145.133 369.768 143.406C364.479 131.359 361.662 124.99 361.316 124.3C360.971 123.609 360.15 122.551 358.855 121.126C357.581 119.701 356.944 118.449 356.944 117.37C356.944 116.29 359.956 115.751 365.979 115.751C367.922 115.751 369.261 115.869 369.995 116.107C370.75 116.323 371.128 116.96 371.128 118.017C371.128 118.406 370.977 118.913 370.675 119.539C370.394 120.144 370.254 120.748 370.254 121.353C370.254 121.936 370.783 123.933 371.841 127.344C372.898 130.755 373.816 133.205 374.593 134.695C375.37 136.184 375.856 136.929 376.05 136.929C376.741 136.929 378.166 133.831 380.325 127.635C380.951 125.843 381.264 123.728 381.264 121.288C381.264 120.727 381.08 120.133 380.713 119.507C380.368 118.881 380.195 118.33 380.195 117.855C380.195 117.359 380.444 116.884 380.94 116.431C381.437 115.956 383.11 115.718 385.959 115.718H386.963ZM410.344 119.248H409.728C407.872 119.248 406.35 120.295 405.162 122.389C403.997 124.483 403.414 126.987 403.414 129.902V131.715C403.414 134.997 404.094 137.771 405.454 140.038C406.814 142.304 408.444 143.438 410.344 143.438H410.959C412.621 143.438 414.068 142.596 415.298 140.912C416.55 139.207 417.177 136.94 417.177 134.112L417.241 133.432L417.274 132.072V131.715L417.241 131.359V130.679C417.198 130.204 417.177 129.859 417.177 129.643C417.177 126.772 416.496 124.321 415.136 122.292C413.776 120.263 412.179 119.248 410.344 119.248ZM410.376 114.941H411.995C413.917 114.941 415.892 115.394 417.921 116.301C421.786 118.028 424.441 120.835 425.887 124.721C426.622 126.728 426.989 128.779 426.989 130.873V131.456C426.989 133.701 426.535 135.903 425.628 138.062C424.722 140.221 423.502 142.013 421.969 143.438C418.774 146.331 415.104 147.777 410.959 147.777C410.635 147.777 410.311 147.766 409.988 147.745C407.915 147.745 405.875 147.335 403.867 146.514C401.881 145.672 400.251 144.56 398.977 143.179C396.236 140.156 394.865 136.368 394.865 131.812V131.262L394.897 130.711C394.919 128.704 395.297 126.718 396.031 124.753C397.455 120.997 400.068 118.222 403.867 116.431C406.004 115.438 408.174 114.941 410.376 114.941ZM432.817 120.122C431.868 119.475 431.393 118.849 431.393 118.244C431.393 117.618 431.965 117.003 433.109 116.398C434.253 115.794 434.965 115.308 435.246 114.941C435.527 114.574 435.969 113.559 436.574 111.897C437.2 110.235 437.858 108.961 438.549 108.076C439.24 107.169 440.147 106.716 441.269 106.716C442.392 106.716 443.202 107.169 443.698 108.076C443.914 108.486 444.195 109.458 444.54 110.99C444.907 112.523 445.339 113.505 445.835 113.937C446.332 114.369 447.282 114.855 448.685 115.394C450.088 115.913 450.811 116.182 450.855 116.204C451.589 116.787 451.956 117.478 451.956 118.276C451.956 118.967 450.93 119.583 448.879 120.122C446.85 120.662 445.544 121.482 444.961 122.583C444.4 123.684 444.119 126.437 444.119 130.841C444.119 135.245 444.454 138.106 445.123 139.422C445.814 140.739 446.936 141.398 448.491 141.398L449.656 141.301C450.175 141.257 450.736 141.236 451.34 141.236C452.657 141.236 453.316 141.732 453.316 142.725C453.316 143.999 452.517 145.014 450.919 145.769C448.631 146.849 446.213 147.389 443.666 147.389C442.478 147.389 441.291 147.065 440.104 146.417C438.916 145.769 438.009 144.981 437.383 144.053C436.153 142.24 435.538 139.649 435.538 136.281L435.505 135.601C435.484 135.126 435.473 134.597 435.473 134.014V132.104C435.473 128.369 435.171 125.185 434.566 122.551C434.35 121.579 433.767 120.77 432.817 120.122ZM473.62 119.248H473.004C471.148 119.248 469.626 120.295 468.439 122.389C467.273 124.483 466.69 126.987 466.69 129.902V131.715C466.69 134.997 467.37 137.771 468.73 140.038C470.09 142.304 471.72 143.438 473.62 143.438H474.235C475.897 143.438 477.344 142.596 478.574 140.912C479.826 139.207 480.453 136.94 480.453 134.112L480.517 133.432L480.55 132.072V131.715L480.517 131.359V130.679C480.474 130.204 480.453 129.859 480.453 129.643C480.453 126.772 479.772 124.321 478.412 122.292C477.052 120.263 475.455 119.248 473.62 119.248ZM473.652 114.941H475.271C477.193 114.941 479.168 115.394 481.197 116.301C485.062 118.028 487.717 120.835 489.164 124.721C489.898 126.728 490.265 128.779 490.265 130.873V131.456C490.265 133.701 489.811 135.903 488.904 138.062C487.998 140.221 486.778 142.013 485.245 143.438C482.05 146.331 478.38 147.777 474.235 147.777C473.911 147.777 473.587 147.766 473.264 147.745C471.191 147.745 469.151 147.335 467.143 146.514C465.157 145.672 463.527 144.56 462.253 143.179C459.512 140.156 458.141 136.368 458.141 131.812V131.262L458.173 130.711C458.195 128.704 458.573 126.718 459.307 124.753C460.731 120.997 463.344 118.222 467.143 116.431C469.28 115.438 471.45 114.941 473.652 114.941Z" fill="#32A5C9"/>
</svg>
